<svg width="290" height="337" viewBox="0 0 290 337" fill="none" xmlns="http://www.w3.org/2000/svg">
<rect width="290" height="337" fill="white"/>
<path d="M26.6399 33H24.3331L27.848 22.8182H30.6222L34.1321 33H31.8253L29.2749 25.1449H29.1953L26.6399 33ZM26.4957 28.9979H31.9446V30.6783H26.4957V28.9979ZM38.4126 33.1491C37.6304 33.1491 36.9576 32.9834 36.3942 32.652C35.834 32.3172 35.4032 31.8532 35.1016 31.2599C34.8033 30.6667 34.6541 29.9839 34.6541 29.2116C34.6541 28.4295 34.8049 27.7434 35.1065 27.1534C35.4115 26.5601 35.844 26.0978 36.4041 25.7663C36.9643 25.4316 37.6304 25.2642 38.4027 25.2642C39.0689 25.2642 39.6522 25.3852 40.1527 25.6271C40.6532 25.8691 41.0492 26.2088 41.3409 26.6463C41.6326 27.0838 41.7933 27.5975 41.8232 28.1875H39.8246C39.7682 27.8063 39.6191 27.4998 39.3771 27.2678C39.1385 27.0324 38.8253 26.9148 38.4375 26.9148C38.1094 26.9148 37.8227 27.0043 37.5774 27.1832C37.3355 27.3589 37.1465 27.6158 37.0107 27.9538C36.8748 28.2919 36.8068 28.7012 36.8068 29.1818C36.8068 29.669 36.8731 30.0833 37.0057 30.4247C37.1416 30.7661 37.3321 31.0263 37.5774 31.2053C37.8227 31.3842 38.1094 31.4737 38.4375 31.4737C38.6795 31.4737 38.8965 31.424 39.0888 31.3246C39.2843 31.2251 39.4451 31.081 39.571 30.892C39.7003 30.6998 39.7848 30.4695 39.8246 30.201H41.8232C41.79 30.7843 41.6309 31.2981 41.3459 31.7422C41.0642 32.183 40.6747 32.5277 40.1776 32.7763C39.6804 33.0249 39.0921 33.1491 38.4126 33.1491ZM47.2409 25.3636V26.9545H42.6422V25.3636H47.2409ZM43.6863 23.5341H45.8042V30.6534C45.8042 30.849 45.834 31.0014 45.8936 31.1108C45.9533 31.2169 46.0362 31.2914 46.1422 31.3345C46.2516 31.3776 46.3775 31.3991 46.5201 31.3991C46.6195 31.3991 46.7189 31.3909 46.8184 31.3743C46.9178 31.3544 46.994 31.3395 47.0471 31.3295L47.3801 32.9055C47.2741 32.9387 47.1249 32.9768 46.9327 33.0199C46.7405 33.0663 46.5068 33.0945 46.2317 33.1044C45.7213 33.1243 45.2739 33.0563 44.8894 32.9006C44.5082 32.7448 44.2116 32.5028 43.9995 32.1747C43.7873 31.8466 43.6829 31.4323 43.6863 30.9318V23.5341ZM48.6206 33V25.3636H50.7385V33H48.6206ZM49.6845 24.3793C49.3696 24.3793 49.0995 24.2749 48.8741 24.0661C48.652 23.8539 48.541 23.6004 48.541 23.3054C48.541 23.0137 48.652 22.7635 48.8741 22.5547C49.0995 22.3426 49.3696 22.2365 49.6845 22.2365C49.9993 22.2365 50.2678 22.3426 50.4899 22.5547C50.7153 22.7635 50.8279 23.0137 50.8279 23.3054C50.8279 23.6004 50.7153 23.8539 50.4899 24.0661C50.2678 24.2749 49.9993 24.3793 49.6845 24.3793ZM59.5543 25.3636L56.8846 33H54.4982L51.8285 25.3636H54.0657L55.6516 30.8274H55.7312L57.3121 25.3636H59.5543ZM63.8722 33.1491C63.0866 33.1491 62.4105 32.9901 61.8438 32.6719C61.2803 32.3504 60.8461 31.8963 60.5412 31.3097C60.2363 30.7197 60.0838 30.022 60.0838 29.2166C60.0838 28.4311 60.2363 27.7417 60.5412 27.1484C60.8461 26.5552 61.2753 26.0928 61.8288 25.7614C62.3857 25.4299 63.0386 25.2642 63.7876 25.2642C64.2914 25.2642 64.7604 25.3454 65.1946 25.5078C65.6321 25.6669 66.0133 25.9072 66.3381 26.2287C66.6662 26.5502 66.9214 26.9545 67.1037 27.4418C67.286 27.9257 67.3771 28.4924 67.3771 29.142V29.7237H60.929V28.4112H65.3835C65.3835 28.1063 65.3172 27.8362 65.1847 27.6009C65.0521 27.3655 64.8681 27.1816 64.6328 27.049C64.4008 26.9131 64.1307 26.8452 63.8224 26.8452C63.5009 26.8452 63.2159 26.9197 62.9673 27.0689C62.7221 27.2147 62.5298 27.4119 62.3906 27.6605C62.2514 27.9058 62.1802 28.1792 62.1768 28.4808V29.7287C62.1768 30.1065 62.2464 30.433 62.3857 30.7081C62.5282 30.9832 62.7287 31.1953 62.9872 31.3445C63.2457 31.4936 63.5523 31.5682 63.907 31.5682C64.1423 31.5682 64.3577 31.535 64.5533 31.4688C64.7488 31.4025 64.9162 31.303 65.0554 31.1705C65.1946 31.0379 65.3007 30.8755 65.3736 30.6832L67.3324 30.8125C67.233 31.2831 67.0291 31.6941 66.7209 32.0455C66.416 32.3935 66.0215 32.6652 65.5376 32.8608C65.0571 33.053 64.5019 33.1491 63.8722 33.1491ZM72.0392 33V22.8182H76.1159C76.865 22.8182 77.4898 22.9292 77.9902 23.1513C78.4907 23.3733 78.8669 23.6816 79.1188 24.076C79.3707 24.4671 79.4966 24.9179 79.4966 25.4283C79.4966 25.826 79.4171 26.1757 79.258 26.4773C79.0989 26.7756 78.8801 27.0208 78.6017 27.2131C78.3266 27.402 78.0118 27.5362 77.6571 27.6158V27.7152C78.0449 27.7318 78.4078 27.8411 78.7459 28.0433C79.0873 28.2455 79.3641 28.5289 79.5762 28.8935C79.7883 29.2547 79.8944 29.6856 79.8944 30.1861C79.8944 30.7263 79.7601 31.2086 79.4917 31.6328C79.2265 32.0537 78.8337 32.3868 78.3134 32.6321C77.793 32.8774 77.1517 33 76.3894 33H72.0392ZM74.1919 31.2401H75.9469C76.5468 31.2401 76.9843 31.1257 77.2594 30.897C77.5345 30.665 77.6721 30.3568 77.6721 29.9723C77.6721 29.6906 77.6041 29.442 77.4682 29.2266C77.3323 29.0111 77.1384 28.8421 76.8865 28.7195C76.638 28.5968 76.3413 28.5355 75.9966 28.5355H74.1919V31.2401ZM74.1919 27.0788H75.7878C76.0828 27.0788 76.3446 27.0275 76.5733 26.9247C76.8053 26.8187 76.9876 26.6695 77.1202 26.4773C77.2561 26.285 77.324 26.0547 77.324 25.7862C77.324 25.4183 77.1931 25.1217 76.9313 24.8963C76.6728 24.6709 76.3049 24.5582 75.8276 24.5582H74.1919V27.0788ZM83.4329 33.1442C82.9457 33.1442 82.5115 33.0597 82.1303 32.8906C81.7492 32.7183 81.4476 32.4647 81.2255 32.13C81.0067 31.7919 80.8974 31.371 80.8974 30.8672C80.8974 30.4429 80.9753 30.0866 81.131 29.7983C81.2868 29.5099 81.4989 29.2779 81.7674 29.1023C82.0359 28.9266 82.3408 28.794 82.6822 28.7045C83.0269 28.6151 83.3881 28.5521 83.766 28.5156C84.2101 28.4692 84.5681 28.4261 84.8398 28.3864C85.1116 28.3433 85.3088 28.2803 85.4315 28.1974C85.5541 28.1146 85.6154 27.992 85.6154 27.8295V27.7997C85.6154 27.4848 85.516 27.2412 85.3171 27.0689C85.1216 26.8965 84.8432 26.8104 84.4819 26.8104C84.1007 26.8104 83.7975 26.8949 83.5721 27.0639C83.3467 27.2296 83.1976 27.4384 83.1246 27.6903L81.1658 27.5312C81.2653 27.0672 81.4608 26.6662 81.7525 26.3281C82.0442 25.9867 82.4203 25.7249 82.881 25.5426C83.3451 25.357 83.882 25.2642 84.4918 25.2642C84.9161 25.2642 85.3221 25.3139 85.7099 25.4134C86.101 25.5128 86.4473 25.6669 86.7489 25.8757C87.0539 26.0845 87.2942 26.353 87.4698 26.6811C87.6455 27.0059 87.7333 27.3954 87.7333 27.8494V33H85.7248V31.9411H85.6651C85.5425 32.1797 85.3784 32.3902 85.1729 32.5724C84.9674 32.7514 84.7205 32.8923 84.4322 32.995C84.1438 33.0945 83.8107 33.1442 83.4329 33.1442ZM84.0394 31.6825C84.351 31.6825 84.6261 31.6212 84.8647 31.4986C85.1033 31.3726 85.2906 31.2036 85.4265 30.9915C85.5624 30.7794 85.6303 30.5391 85.6303 30.2706V29.4602C85.564 29.5033 85.4729 29.5431 85.3569 29.5795C85.2442 29.6127 85.1166 29.6442 84.9741 29.674C84.8316 29.7005 84.689 29.7254 84.5465 29.7486C84.404 29.7685 84.2747 29.7867 84.1587 29.8033C83.9102 29.8397 83.6931 29.8977 83.5075 29.9773C83.3219 30.0568 83.1777 30.1645 83.0749 30.3004C82.9722 30.433 82.9208 30.5987 82.9208 30.7976C82.9208 31.0859 83.0252 31.3063 83.234 31.4588C83.4461 31.608 83.7146 31.6825 84.0394 31.6825ZM93.4382 25.3636V26.9545H88.8395V25.3636H93.4382ZM89.8835 23.5341H92.0014V30.6534C92.0014 30.849 92.0313 31.0014 92.0909 31.1108C92.1506 31.2169 92.2334 31.2914 92.3395 31.3345C92.4489 31.3776 92.5748 31.3991 92.7173 31.3991C92.8168 31.3991 92.9162 31.3909 93.0156 31.3743C93.1151 31.3544 93.1913 31.3395 93.2443 31.3295L93.5774 32.9055C93.4714 32.9387 93.3222 32.9768 93.13 33.0199C92.9377 33.0663 92.7041 33.0945 92.429 33.1044C91.9186 33.1243 91.4711 33.0563 91.0866 32.9006C90.7055 32.7448 90.4089 32.5028 90.1967 32.1747C89.9846 31.8466 89.8802 31.4323 89.8835 30.9318V23.5341ZM98.1861 33.1491C97.4039 33.1491 96.7311 32.9834 96.1676 32.652C95.6075 32.3172 95.1766 31.8532 94.875 31.2599C94.5767 30.6667 94.4276 29.9839 94.4276 29.2116C94.4276 28.4295 94.5784 27.7434 94.88 27.1534C95.1849 26.5601 95.6174 26.0978 96.1776 25.7663C96.7377 25.4316 97.4039 25.2642 98.1761 25.2642C98.8423 25.2642 99.4257 25.3852 99.9261 25.6271C100.427 25.8691 100.823 26.2088 101.114 26.6463C101.406 27.0838 101.567 27.5975 101.597 28.1875H99.598C99.5417 27.8063 99.3925 27.4998 99.1506 27.2678C98.9119 27.0324 98.5987 26.9148 98.2109 26.9148C97.8828 26.9148 97.5961 27.0043 97.3509 27.1832C97.1089 27.3589 96.92 27.6158 96.7841 27.9538C96.6482 28.2919 96.5803 28.7012 96.5803 29.1818C96.5803 29.669 96.6465 30.0833 96.7791 30.4247C96.915 30.7661 97.1056 31.0263 97.3509 31.2053C97.5961 31.3842 97.8828 31.4737 98.2109 31.4737C98.4529 31.4737 98.67 31.424 98.8622 31.3246C99.0578 31.2251 99.2185 31.081 99.3445 30.892C99.4737 30.6998 99.5582 30.4695 99.598 30.201H101.597C101.563 30.7843 101.404 31.2981 101.119 31.7422C100.838 32.183 100.448 32.5277 99.951 32.7763C99.4538 33.0249 98.8655 33.1491 98.1861 33.1491ZM105.07 28.5852V33H102.953V22.8182H105.011V26.7109H105.1C105.273 26.2602 105.551 25.9072 105.936 25.652C106.32 25.3935 106.802 25.2642 107.382 25.2642C107.913 25.2642 108.375 25.3802 108.769 25.6122C109.167 25.8409 109.475 26.1707 109.694 26.6016C109.916 27.0291 110.026 27.5412 110.022 28.1378V33H107.904V28.5156C107.908 28.045 107.788 27.6787 107.546 27.4169C107.308 27.1551 106.973 27.0241 106.542 27.0241C106.254 27.0241 105.999 27.0855 105.776 27.2081C105.558 27.3307 105.385 27.5097 105.259 27.745C105.137 27.977 105.074 28.2571 105.07 28.5852Z" fill="#350055"/>
<path d="M40.0568 310.273H41.3182L44.2841 317.517H44.3864L47.3523 310.273H48.6136V319H47.625V312.369H47.5398L44.8125 319H43.858L41.1307 312.369H41.0455V319H40.0568V310.273ZM53.2553 319.136C52.6644 319.136 52.146 318.996 51.6999 318.714C51.2567 318.433 50.9102 318.04 50.6602 317.534C50.413 317.028 50.2894 316.437 50.2894 315.761C50.2894 315.08 50.413 314.484 50.6602 313.976C50.9102 313.467 51.2567 313.072 51.6999 312.791C52.146 312.51 52.6644 312.369 53.2553 312.369C53.8462 312.369 54.3633 312.51 54.8065 312.791C55.2525 313.072 55.5991 313.467 55.8462 313.976C56.0962 314.484 56.2212 315.08 56.2212 315.761C56.2212 316.437 56.0962 317.028 55.8462 317.534C55.5991 318.04 55.2525 318.433 54.8065 318.714C54.3633 318.996 53.8462 319.136 53.2553 319.136ZM53.2553 318.233C53.7042 318.233 54.0735 318.118 54.3633 317.888C54.6531 317.658 54.8675 317.355 55.0067 316.98C55.146 316.605 55.2156 316.199 55.2156 315.761C55.2156 315.324 55.146 314.916 55.0067 314.538C54.8675 314.161 54.6531 313.855 54.3633 313.622C54.0735 313.389 53.7042 313.273 53.2553 313.273C52.8065 313.273 52.4371 313.389 52.1474 313.622C51.8576 313.855 51.6431 314.161 51.5039 314.538C51.3647 314.916 51.2951 315.324 51.2951 315.761C51.2951 316.199 51.3647 316.605 51.5039 316.98C51.6431 317.355 51.8576 317.658 52.1474 317.888C52.4371 318.118 52.8065 318.233 53.2553 318.233ZM58.7621 315.062V319H57.7564V312.455H58.728V313.477H58.8132C58.9666 313.145 59.1996 312.878 59.5121 312.676C59.8246 312.472 60.228 312.369 60.7223 312.369C61.1655 312.369 61.5533 312.46 61.8857 312.642C62.218 312.821 62.4766 313.094 62.6612 313.46C62.8459 313.824 62.9382 314.284 62.9382 314.841V319H61.9325V314.909C61.9325 314.395 61.799 313.994 61.532 313.707C61.2649 313.418 60.8984 313.273 60.4325 313.273C60.1115 313.273 59.8246 313.342 59.5717 313.482C59.3217 313.621 59.1243 313.824 58.9794 314.091C58.8345 314.358 58.7621 314.682 58.7621 315.062Z" fill="#ADADAD"/>
<path d="M12.75 321.119C12.108 321.119 11.5611 320.945 11.1094 320.595C10.6577 320.243 10.3125 319.733 10.0739 319.065C9.83523 318.395 9.71591 317.585 9.71591 316.636C9.71591 315.693 9.83523 314.888 10.0739 314.22C10.3153 313.55 10.6619 313.038 11.1136 312.686C11.5682 312.331 12.1136 312.153 12.75 312.153C13.3864 312.153 13.9304 312.331 14.3821 312.686C14.8366 313.038 15.1832 313.55 15.4219 314.22C15.6634 314.888 15.7841 315.693 15.7841 316.636C15.7841 317.585 15.6648 318.395 15.4261 319.065C15.1875 319.733 14.8423 320.243 14.3906 320.595C13.9389 320.945 13.392 321.119 12.75 321.119ZM12.75 320.182C13.3864 320.182 13.8807 319.875 14.233 319.261C14.5852 318.648 14.7614 317.773 14.7614 316.636C14.7614 315.881 14.6804 315.237 14.5185 314.706C14.3594 314.175 14.1293 313.77 13.8281 313.491C13.5298 313.213 13.1705 313.074 12.75 313.074C12.1193 313.074 11.6264 313.385 11.2713 314.007C10.9162 314.626 10.7386 315.503 10.7386 316.636C10.7386 317.392 10.8182 318.034 10.9773 318.562C11.1364 319.091 11.3651 319.493 11.6634 319.768C11.9645 320.044 12.3267 320.182 12.75 320.182Z" fill="#ADADAD"/>
<path d="M12.9716 284.273V293H11.9148V285.381H11.8636L9.73295 286.795V285.722L11.9148 284.273H12.9716ZM18.3281 293.119C17.6861 293.119 17.1392 292.945 16.6875 292.595C16.2358 292.243 15.8906 291.733 15.652 291.065C15.4134 290.395 15.294 289.585 15.294 288.636C15.294 287.693 15.4134 286.888 15.652 286.22C15.8935 285.55 16.2401 285.038 16.6918 284.686C17.1463 284.331 17.6918 284.153 18.3281 284.153C18.9645 284.153 19.5085 284.331 19.9602 284.686C20.4148 285.038 20.7614 285.55 21 286.22C21.2415 286.888 21.3622 287.693 21.3622 288.636C21.3622 289.585 21.2429 290.395 21.0043 291.065C20.7656 291.733 20.4205 292.243 19.9688 292.595C19.517 292.945 18.9702 293.119 18.3281 293.119ZM18.3281 292.182C18.9645 292.182 19.4588 291.875 19.8111 291.261C20.1634 290.648 20.3395 289.773 20.3395 288.636C20.3395 287.881 20.2585 287.237 20.0966 286.706C19.9375 286.175 19.7074 285.77 19.4062 285.491C19.108 285.213 18.7486 285.074 18.3281 285.074C17.6974 285.074 17.2045 285.385 16.8494 286.007C16.4943 286.626 16.3168 287.503 16.3168 288.636C16.3168 289.392 16.3963 290.034 16.5554 290.562C16.7145 291.091 16.9432 291.493 17.2415 291.768C17.5426 292.044 17.9048 292.182 18.3281 292.182Z" fill="#ADADAD"/>
<path d="M9.90341 265V264.233L12.7841 261.08C13.1222 260.71 13.4006 260.389 13.6193 260.116C13.8381 259.841 14 259.582 14.1051 259.341C14.2131 259.097 14.267 258.841 14.267 258.574C14.267 258.267 14.1932 258.001 14.0455 257.777C13.9006 257.553 13.7017 257.379 13.4489 257.257C13.196 257.135 12.9119 257.074 12.5966 257.074C12.2614 257.074 11.9688 257.143 11.7188 257.283C11.4716 257.419 11.2798 257.611 11.1435 257.858C11.0099 258.105 10.9432 258.395 10.9432 258.727H9.9375C9.9375 258.216 10.0554 257.767 10.2912 257.381C10.527 256.994 10.848 256.693 11.2543 256.477C11.6634 256.261 12.1222 256.153 12.6307 256.153C13.142 256.153 13.5952 256.261 13.9901 256.477C14.3849 256.693 14.6946 256.984 14.919 257.351C15.1435 257.717 15.2557 258.125 15.2557 258.574C15.2557 258.895 15.1974 259.209 15.081 259.516C14.9673 259.82 14.7685 260.159 14.4844 260.534C14.2031 260.906 13.8125 261.361 13.3125 261.898L11.3523 263.994V264.062H15.4091V265H9.90341ZM20.0156 265.119C19.3736 265.119 18.8267 264.945 18.375 264.595C17.9233 264.243 17.5781 263.733 17.3395 263.065C17.1009 262.395 16.9815 261.585 16.9815 260.636C16.9815 259.693 17.1009 258.888 17.3395 258.22C17.581 257.55 17.9276 257.038 18.3793 256.686C18.8338 256.331 19.3793 256.153 20.0156 256.153C20.652 256.153 21.196 256.331 21.6477 256.686C22.1023 257.038 22.4489 257.55 22.6875 258.22C22.929 258.888 23.0497 259.693 23.0497 260.636C23.0497 261.585 22.9304 262.395 22.6918 263.065C22.4531 263.733 22.108 264.243 21.6562 264.595C21.2045 264.945 20.6577 265.119 20.0156 265.119ZM20.0156 264.182C20.652 264.182 21.1463 263.875 21.4986 263.261C21.8509 262.648 22.027 261.773 22.027 260.636C22.027 259.881 21.946 259.237 21.7841 258.706C21.625 258.175 21.3949 257.77 21.0938 257.491C20.7955 257.213 20.4361 257.074 20.0156 257.074C19.3849 257.074 18.892 257.385 18.5369 258.007C18.1818 258.626 18.0043 259.503 18.0043 260.636C18.0043 261.392 18.0838 262.034 18.2429 262.562C18.402 263.091 18.6307 263.493 18.929 263.768C19.2301 264.044 19.5923 264.182 20.0156 264.182Z" fill="#ADADAD"/>
<path d="M12.8523 237.119C12.2898 237.119 11.7884 237.023 11.348 236.83C10.9105 236.636 10.5625 236.368 10.304 236.024C10.0483 235.678 9.90909 235.276 9.88636 234.818H10.9602C10.983 235.099 11.0795 235.342 11.25 235.547C11.4205 235.749 11.6435 235.905 11.919 236.016C12.1946 236.126 12.5 236.182 12.8352 236.182C13.2102 236.182 13.5426 236.116 13.8324 235.986C14.1222 235.855 14.3494 235.673 14.5142 235.44C14.679 235.207 14.7614 234.938 14.7614 234.631C14.7614 234.31 14.6818 234.027 14.5227 233.783C14.3636 233.536 14.1307 233.342 13.8239 233.203C13.517 233.064 13.142 232.994 12.6989 232.994H12V232.057H12.6989C13.0455 232.057 13.3494 231.994 13.6108 231.869C13.875 231.744 14.081 231.568 14.2287 231.341C14.3793 231.114 14.4545 230.847 14.4545 230.54C14.4545 230.244 14.3892 229.987 14.2585 229.768C14.1278 229.55 13.9432 229.379 13.7045 229.257C13.4688 229.135 13.1903 229.074 12.8693 229.074C12.5682 229.074 12.2841 229.129 12.017 229.24C11.7528 229.348 11.5369 229.506 11.3693 229.713C11.2017 229.918 11.1108 230.165 11.0966 230.455H10.0739C10.0909 229.997 10.2287 229.597 10.4872 229.253C10.7457 228.906 11.0838 228.636 11.5014 228.443C11.9219 228.25 12.3835 228.153 12.8864 228.153C13.4261 228.153 13.8892 228.263 14.2756 228.482C14.6619 228.697 14.9588 228.983 15.1662 229.338C15.3736 229.693 15.4773 230.077 15.4773 230.489C15.4773 230.98 15.348 231.399 15.0895 231.746C14.8338 232.092 14.4858 232.332 14.0455 232.466V232.534C14.5966 232.625 15.027 232.859 15.3366 233.237C15.6463 233.612 15.8011 234.077 15.8011 234.631C15.8011 235.105 15.6719 235.531 15.4134 235.909C15.1577 236.284 14.8082 236.58 14.3651 236.795C13.9219 237.011 13.4176 237.119 12.8523 237.119ZM20.3906 237.119C19.7486 237.119 19.2017 236.945 18.75 236.595C18.2983 236.243 17.9531 235.733 17.7145 235.065C17.4759 234.395 17.3565 233.585 17.3565 232.636C17.3565 231.693 17.4759 230.888 17.7145 230.22C17.956 229.55 18.3026 229.038 18.7543 228.686C19.2088 228.331 19.7543 228.153 20.3906 228.153C21.027 228.153 21.571 228.331 22.0227 228.686C22.4773 229.038 22.8239 229.55 23.0625 230.22C23.304 230.888 23.4247 231.693 23.4247 232.636C23.4247 233.585 23.3054 234.395 23.0668 235.065C22.8281 235.733 22.483 236.243 22.0312 236.595C21.5795 236.945 21.0327 237.119 20.3906 237.119ZM20.3906 236.182C21.027 236.182 21.5213 235.875 21.8736 235.261C22.2259 234.648 22.402 233.773 22.402 232.636C22.402 231.881 22.321 231.237 22.1591 230.706C22 230.175 21.7699 229.77 21.4688 229.491C21.1705 229.213 20.8111 229.074 20.3906 229.074C19.7599 229.074 19.267 229.385 18.9119 230.007C18.5568 230.626 18.3793 231.503 18.3793 232.636C18.3793 233.392 18.4588 234.034 18.6179 234.562C18.777 235.091 19.0057 235.493 19.304 235.768C19.6051 236.044 19.9673 236.182 20.3906 236.182Z" fill="#ADADAD"/>
<path d="M9.69886 207.21V206.341L13.5341 200.273H14.1648V201.619H13.7386L10.8409 206.205V206.273H16.0057V207.21H9.69886ZM13.8068 209V206.946V206.541V200.273H14.8125V209H13.8068ZM20.4492 209.119C19.8072 209.119 19.2603 208.945 18.8086 208.595C18.3569 208.243 18.0117 207.733 17.7731 207.065C17.5344 206.395 17.4151 205.585 17.4151 204.636C17.4151 203.693 17.5344 202.888 17.7731 202.22C18.0146 201.55 18.3612 201.038 18.8129 200.686C19.2674 200.331 19.8129 200.153 20.4492 200.153C21.0856 200.153 21.6296 200.331 22.0813 200.686C22.5359 201.038 22.8825 201.55 23.1211 202.22C23.3626 202.888 23.4833 203.693 23.4833 204.636C23.4833 205.585 23.364 206.395 23.1254 207.065C22.8867 207.733 22.5415 208.243 22.0898 208.595C21.6381 208.945 21.0913 209.119 20.4492 209.119ZM20.4492 208.182C21.0856 208.182 21.5799 207.875 21.9322 207.261C22.2844 206.648 22.4606 205.773 22.4606 204.636C22.4606 203.881 22.3796 203.237 22.2177 202.706C22.0586 202.175 21.8285 201.77 21.5273 201.491C21.229 201.213 20.8697 201.074 20.4492 201.074C19.8185 201.074 19.3256 201.385 18.9705 202.007C18.6154 202.626 18.4379 203.503 18.4379 204.636C18.4379 205.392 18.5174 206.034 18.6765 206.562C18.8356 207.091 19.0643 207.493 19.3626 207.768C19.6637 208.044 20.0259 208.182 20.4492 208.182Z" fill="#ADADAD"/>
<path d="M12.6307 181.119C12.1307 181.119 11.6804 181.02 11.2798 180.821C10.8793 180.622 10.5582 180.349 10.3168 180.003C10.0753 179.656 9.94318 179.261 9.92045 178.818H10.9432C10.983 179.213 11.1619 179.54 11.4801 179.798C11.8011 180.054 12.1847 180.182 12.6307 180.182C12.9886 180.182 13.3068 180.098 13.5852 179.93C13.8665 179.763 14.0866 179.533 14.2457 179.24C14.4077 178.945 14.4886 178.611 14.4886 178.239C14.4886 177.858 14.4048 177.518 14.2372 177.22C14.0724 176.919 13.8452 176.682 13.5554 176.509C13.2656 176.335 12.9347 176.247 12.5625 176.244C12.2955 176.241 12.0213 176.283 11.7401 176.368C11.4588 176.45 11.2273 176.557 11.0455 176.688L10.0568 176.568L10.5852 172.273H15.1193V173.21H11.4716L11.1648 175.784H11.2159C11.3949 175.642 11.6193 175.524 11.8892 175.43C12.1591 175.337 12.4403 175.29 12.733 175.29C13.267 175.29 13.7429 175.418 14.1605 175.673C14.581 175.926 14.9105 176.273 15.1491 176.713C15.3906 177.153 15.5114 177.656 15.5114 178.222C15.5114 178.778 15.3864 179.276 15.1364 179.713C14.8892 180.148 14.5483 180.491 14.1136 180.744C13.679 180.994 13.1847 181.119 12.6307 181.119ZM20.0508 181.119C19.4087 181.119 18.8619 180.945 18.4102 180.595C17.9585 180.243 17.6133 179.733 17.3746 179.065C17.136 178.395 17.0167 177.585 17.0167 176.636C17.0167 175.693 17.136 174.888 17.3746 174.22C17.6161 173.55 17.9627 173.038 18.4144 172.686C18.869 172.331 19.4144 172.153 20.0508 172.153C20.6871 172.153 21.2312 172.331 21.6829 172.686C22.1374 173.038 22.484 173.55 22.7227 174.22C22.9641 174.888 23.0849 175.693 23.0849 176.636C23.0849 177.585 22.9656 178.395 22.7269 179.065C22.4883 179.733 22.1431 180.243 21.6914 180.595C21.2397 180.945 20.6928 181.119 20.0508 181.119ZM20.0508 180.182C20.6871 180.182 21.1815 179.875 21.5337 179.261C21.886 178.648 22.0621 177.773 22.0621 176.636C22.0621 175.881 21.9812 175.237 21.8192 174.706C21.6602 174.175 21.43 173.77 21.1289 173.491C20.8306 173.213 20.4712 173.074 20.0508 173.074C19.4201 173.074 18.9272 173.385 18.5721 174.007C18.217 174.626 18.0394 175.503 18.0394 176.636C18.0394 177.392 18.119 178.034 18.2781 178.562C18.4371 179.091 18.6658 179.493 18.9641 179.768C19.2653 180.044 19.6275 180.182 20.0508 180.182Z" fill="#ADADAD"/>
<path d="M12.8011 153.119C12.4432 153.114 12.0852 153.045 11.7273 152.915C11.3693 152.784 11.0426 152.564 10.7472 152.254C10.4517 151.942 10.2145 151.52 10.0355 150.989C9.85653 150.455 9.76705 149.784 9.76705 148.977C9.76705 148.205 9.83949 147.52 9.98438 146.923C10.1293 146.324 10.3395 145.82 10.6151 145.411C10.8906 144.999 11.223 144.686 11.6122 144.473C12.0043 144.26 12.446 144.153 12.9375 144.153C13.4261 144.153 13.8608 144.251 14.2415 144.447C14.625 144.641 14.9375 144.911 15.179 145.257C15.4205 145.604 15.5767 146.003 15.6477 146.455H14.608C14.5114 146.062 14.3239 145.737 14.0455 145.479C13.767 145.22 13.3977 145.091 12.9375 145.091C12.2614 145.091 11.7287 145.385 11.3395 145.973C10.9531 146.561 10.7585 147.386 10.7557 148.449H10.8239C10.983 148.207 11.1719 148.001 11.3906 147.831C11.6122 147.658 11.8565 147.524 12.1236 147.43C12.3906 147.337 12.6733 147.29 12.9716 147.29C13.4716 147.29 13.929 147.415 14.3438 147.665C14.7585 147.912 15.0909 148.254 15.3409 148.692C15.5909 149.126 15.7159 149.625 15.7159 150.188C15.7159 150.727 15.5952 151.222 15.3537 151.67C15.1122 152.116 14.7727 152.472 14.3352 152.736C13.9006 152.997 13.3892 153.125 12.8011 153.119ZM12.8011 152.182C13.1591 152.182 13.4801 152.092 13.7642 151.913C14.0511 151.734 14.277 151.494 14.4418 151.193C14.6094 150.892 14.6932 150.557 14.6932 150.188C14.6932 149.827 14.6122 149.499 14.4503 149.203C14.2912 148.905 14.071 148.668 13.7898 148.491C13.5114 148.315 13.1932 148.227 12.8352 148.227C12.5653 148.227 12.3139 148.281 12.081 148.389C11.848 148.494 11.6435 148.639 11.4673 148.824C11.294 149.009 11.1577 149.22 11.0582 149.459C10.9588 149.695 10.9091 149.943 10.9091 150.205C10.9091 150.551 10.9901 150.875 11.152 151.176C11.3168 151.477 11.5412 151.72 11.8253 151.905C12.1122 152.089 12.4375 152.182 12.8011 152.182ZM20.2383 153.119C19.5962 153.119 19.0494 152.945 18.5977 152.595C18.146 152.243 17.8008 151.733 17.5621 151.065C17.3235 150.395 17.2042 149.585 17.2042 148.636C17.2042 147.693 17.3235 146.888 17.5621 146.22C17.8036 145.55 18.1502 145.038 18.6019 144.686C19.0565 144.331 19.6019 144.153 20.2383 144.153C20.8746 144.153 21.4187 144.331 21.8704 144.686C22.3249 145.038 22.6715 145.55 22.9102 146.22C23.1516 146.888 23.2724 147.693 23.2724 148.636C23.2724 149.585 23.1531 150.395 22.9144 151.065C22.6758 151.733 22.3306 152.243 21.8789 152.595C21.4272 152.945 20.8803 153.119 20.2383 153.119ZM20.2383 152.182C20.8746 152.182 21.369 151.875 21.7212 151.261C22.0735 150.648 22.2496 149.773 22.2496 148.636C22.2496 147.881 22.1687 147.237 22.0067 146.706C21.8477 146.175 21.6175 145.77 21.3164 145.491C21.0181 145.213 20.6587 145.074 20.2383 145.074C19.6076 145.074 19.1147 145.385 18.7596 146.007C18.4045 146.626 18.2269 147.503 18.2269 148.636C18.2269 149.392 18.3065 150.034 18.4656 150.562C18.6246 151.091 18.8533 151.493 19.1516 151.768C19.4528 152.044 19.815 152.182 20.2383 152.182Z" fill="#ADADAD"/>
<path d="M10.1761 125L14.0795 117.278V117.21H9.57955V116.273H15.1705V117.261L11.2841 125H10.1761ZM19.418 125.119C18.7759 125.119 18.229 124.945 17.7773 124.595C17.3256 124.243 16.9805 123.733 16.7418 123.065C16.5032 122.395 16.3839 121.585 16.3839 120.636C16.3839 119.693 16.5032 118.888 16.7418 118.22C16.9833 117.55 17.3299 117.038 17.7816 116.686C18.2362 116.331 18.7816 116.153 19.418 116.153C20.0543 116.153 20.5984 116.331 21.0501 116.686C21.5046 117.038 21.8512 117.55 22.0898 118.22C22.3313 118.888 22.4521 119.693 22.4521 120.636C22.4521 121.585 22.3327 122.395 22.0941 123.065C21.8555 123.733 21.5103 124.243 21.0586 124.595C20.6069 124.945 20.06 125.119 19.418 125.119ZM19.418 124.182C20.0543 124.182 20.5487 123.875 20.9009 123.261C21.2532 122.648 21.4293 121.773 21.4293 120.636C21.4293 119.881 21.3484 119.237 21.1864 118.706C21.0273 118.175 20.7972 117.77 20.4961 117.491C20.1978 117.213 19.8384 117.074 19.418 117.074C18.7873 117.074 18.2944 117.385 17.9393 118.007C17.5842 118.626 17.4066 119.503 17.4066 120.636C17.4066 121.392 17.4862 122.034 17.6452 122.562C17.8043 123.091 18.033 123.493 18.3313 123.768C18.6325 124.044 18.9947 124.182 19.418 124.182Z" fill="#ADADAD"/>
<path d="M12.6989 97.1193C12.1136 97.1193 11.5966 97.0156 11.1477 96.8082C10.7017 96.598 10.3537 96.3097 10.1037 95.9432C9.85369 95.5739 9.73011 95.1534 9.73295 94.6818C9.73011 94.3125 9.80256 93.9716 9.95028 93.6591C10.098 93.3437 10.2997 93.081 10.5554 92.8707C10.8139 92.6577 11.1023 92.5227 11.4205 92.4659V92.4148C11.0028 92.3068 10.6705 92.0724 10.4233 91.7116C10.1761 91.348 10.054 90.9347 10.0568 90.4716C10.054 90.0284 10.1662 89.6321 10.3935 89.2827C10.6207 88.9332 10.9332 88.6577 11.331 88.456C11.7315 88.2543 12.1875 88.1534 12.6989 88.1534C13.2045 88.1534 13.6563 88.2543 14.054 88.456C14.4517 88.6577 14.7642 88.9332 14.9915 89.2827C15.2216 89.6321 15.3381 90.0284 15.3409 90.4716C15.3381 90.9347 15.2116 91.348 14.9616 91.7116C14.7145 92.0724 14.3864 92.3068 13.9773 92.4148V92.4659C14.2926 92.5227 14.5767 92.6577 14.8295 92.8707C15.0824 93.081 15.2841 93.3437 15.4347 93.6591C15.5852 93.9716 15.6619 94.3125 15.6648 94.6818C15.6619 95.1534 15.5341 95.5739 15.2812 95.9432C15.0312 96.3097 14.6832 96.598 14.2372 96.8082C13.794 97.0156 13.2813 97.1193 12.6989 97.1193ZM12.6989 96.1818C13.0938 96.1818 13.4347 96.1179 13.7216 95.9901C14.0085 95.8622 14.2301 95.6818 14.3864 95.4489C14.5426 95.2159 14.6222 94.9432 14.625 94.6307C14.6222 94.3011 14.5369 94.0099 14.3693 93.7571C14.2017 93.5043 13.973 93.3054 13.6832 93.1605C13.3963 93.0156 13.0682 92.9432 12.6989 92.9432C12.3267 92.9432 11.9943 93.0156 11.7017 93.1605C11.4119 93.3054 11.1832 93.5043 11.0156 93.7571C10.8509 94.0099 10.7699 94.3011 10.7727 94.6307C10.7699 94.9432 10.8452 95.2159 10.9986 95.4489C11.1548 95.6818 11.3778 95.8622 11.6676 95.9901C11.9574 96.1179 12.3011 96.1818 12.6989 96.1818ZM12.6989 92.0398C13.0114 92.0398 13.2884 91.9773 13.5298 91.8523C13.7741 91.7273 13.9659 91.5526 14.1051 91.3281C14.2443 91.1037 14.3153 90.8409 14.3182 90.5398C14.3153 90.2443 14.2457 89.9872 14.1094 89.7685C13.973 89.5469 13.7841 89.3764 13.5426 89.2571C13.3011 89.1349 13.0199 89.0739 12.6989 89.0739C12.3722 89.0739 12.0866 89.1349 11.8423 89.2571C11.598 89.3764 11.4091 89.5469 11.2756 89.7685C11.142 89.9872 11.0767 90.2443 11.0795 90.5398C11.0767 90.8409 11.1435 91.1037 11.2798 91.3281C11.419 91.5526 11.6108 91.7273 11.8551 91.8523C12.0994 91.9773 12.3807 92.0398 12.6989 92.0398ZM20.1445 97.1193C19.5025 97.1193 18.9556 96.9446 18.5039 96.5952C18.0522 96.2429 17.707 95.733 17.4684 95.0653C17.2298 94.3949 17.1104 93.5852 17.1104 92.6364C17.1104 91.6932 17.2298 90.8878 17.4684 90.2202C17.7099 89.5497 18.0565 89.0384 18.5082 88.6861C18.9627 88.331 19.5082 88.1534 20.1445 88.1534C20.7809 88.1534 21.3249 88.331 21.7766 88.6861C22.2312 89.0384 22.5778 89.5497 22.8164 90.2202C23.0579 90.8878 23.1786 91.6932 23.1786 92.6364C23.1786 93.5852 23.0593 94.3949 22.8207 95.0653C22.582 95.733 22.2369 96.2429 21.7852 96.5952C21.3335 96.9446 20.7866 97.1193 20.1445 97.1193ZM20.1445 96.1818C20.7809 96.1818 21.2752 95.875 21.6275 95.2614C21.9798 94.6477 22.1559 93.7727 22.1559 92.6364C22.1559 91.8807 22.0749 91.2372 21.913 90.706C21.7539 90.1747 21.5238 89.7699 21.2227 89.4915C20.9244 89.2131 20.565 89.0739 20.1445 89.0739C19.5138 89.0739 19.021 89.3849 18.6658 90.0071C18.3107 90.6264 18.1332 91.5028 18.1332 92.6364C18.1332 93.392 18.2127 94.0341 18.3718 94.5625C18.5309 95.0909 18.7596 95.4929 19.0579 95.7685C19.359 96.044 19.7212 96.1818 20.1445 96.1818Z" fill="#ADADAD"/>
<path d="M12.6818 60.1534C13.0398 60.1562 13.3977 60.2244 13.7557 60.358C14.1136 60.4915 14.4403 60.7131 14.7358 61.0227C15.0313 61.3295 15.2685 61.7486 15.4474 62.2798C15.6264 62.8111 15.7159 63.4773 15.7159 64.2784C15.7159 65.054 15.642 65.7429 15.4943 66.3452C15.3494 66.9446 15.1392 67.4503 14.8636 67.8622C14.5909 68.2741 14.2585 68.5866 13.8665 68.7997C13.4773 69.0128 13.0369 69.1193 12.5455 69.1193C12.0568 69.1193 11.6207 69.0227 11.2372 68.8295C10.8565 68.6335 10.544 68.3622 10.2997 68.0156C10.0582 67.6662 9.90341 67.2614 9.83523 66.8011H10.875C10.9688 67.2017 11.1548 67.5327 11.4332 67.794C11.7145 68.0526 12.0852 68.1818 12.5455 68.1818C13.2188 68.1818 13.75 67.8878 14.1392 67.2997C14.5313 66.7116 14.7273 65.8807 14.7273 64.8068H14.6591C14.5 65.0455 14.3111 65.2514 14.0923 65.4247C13.8736 65.598 13.6307 65.7315 13.3636 65.8253C13.0966 65.919 12.8125 65.9659 12.5114 65.9659C12.0114 65.9659 11.5526 65.8423 11.1349 65.5952C10.7202 65.3452 10.3878 65.0028 10.1378 64.5682C9.89062 64.1307 9.76705 63.6307 9.76705 63.0682C9.76705 62.5341 9.88636 62.0455 10.125 61.6023C10.3665 61.1562 10.7045 60.8011 11.1392 60.5369C11.5767 60.2727 12.0909 60.1449 12.6818 60.1534ZM12.6818 61.0909C12.3239 61.0909 12.0014 61.1804 11.7145 61.3594C11.4304 61.5355 11.2045 61.7741 11.0369 62.0753C10.8722 62.3736 10.7898 62.7045 10.7898 63.0682C10.7898 63.4318 10.8693 63.7628 11.0284 64.0611C11.1903 64.3565 11.4105 64.5923 11.6889 64.7685C11.9702 64.9418 12.2898 65.0284 12.6477 65.0284C12.9176 65.0284 13.169 64.9759 13.402 64.8707C13.6349 64.7628 13.8381 64.6165 14.0114 64.4318C14.1875 64.2443 14.3253 64.0327 14.4247 63.7969C14.5241 63.5582 14.5739 63.3097 14.5739 63.0511C14.5739 62.7102 14.4915 62.3906 14.3267 62.0923C14.1648 61.794 13.9403 61.5526 13.6534 61.3679C13.3693 61.1832 13.0455 61.0909 12.6818 61.0909ZM20.2383 69.1193C19.5962 69.1193 19.0494 68.9446 18.5977 68.5952C18.146 68.2429 17.8008 67.733 17.5621 67.0653C17.3235 66.3949 17.2042 65.5852 17.2042 64.6364C17.2042 63.6932 17.3235 62.8878 17.5621 62.2202C17.8036 61.5497 18.1502 61.0384 18.6019 60.6861C19.0565 60.331 19.6019 60.1534 20.2383 60.1534C20.8746 60.1534 21.4187 60.331 21.8704 60.6861C22.3249 61.0384 22.6715 61.5497 22.9102 62.2202C23.1516 62.8878 23.2724 63.6932 23.2724 64.6364C23.2724 65.5852 23.1531 66.3949 22.9144 67.0653C22.6758 67.733 22.3306 68.2429 21.8789 68.5952C21.4272 68.9446 20.8803 69.1193 20.2383 69.1193ZM20.2383 68.1818C20.8746 68.1818 21.369 67.875 21.7212 67.2614C22.0735 66.6477 22.2496 65.7727 22.2496 64.6364C22.2496 63.8807 22.1687 63.2372 22.0067 62.706C21.8477 62.1747 21.6175 61.7699 21.3164 61.4915C21.0181 61.2131 20.6587 61.0739 20.2383 61.0739C19.6076 61.0739 19.1147 61.3849 18.7596 62.0071C18.4045 62.6264 18.2269 63.5028 18.2269 64.6364C18.2269 65.392 18.3065 66.0341 18.4656 66.5625C18.6246 67.0909 18.8533 67.4929 19.1516 67.7685C19.4528 68.044 19.815 68.1818 20.2383 68.1818Z" fill="#ADADAD"/>
<path d="M76.5795 311.21V310.273H83.125V311.21H80.3807V319H79.3239V311.21H76.5795ZM87.854 316.324V312.455H88.8597V319H87.854V317.892H87.7859C87.6325 318.224 87.3938 318.507 87.07 318.74C86.7461 318.97 86.337 319.085 85.8427 319.085C85.4336 319.085 85.07 318.996 84.7518 318.817C84.4336 318.635 84.1836 318.362 84.0018 317.999C83.82 317.632 83.729 317.17 83.729 316.614V312.455H84.7347V316.545C84.7347 317.023 84.8683 317.403 85.1353 317.688C85.4052 317.972 85.7489 318.114 86.1665 318.114C86.4165 318.114 86.6708 318.05 86.9293 317.922C87.1907 317.794 87.4094 317.598 87.5856 317.334C87.7646 317.07 87.854 316.733 87.854 316.324ZM93.446 319.136C92.8153 319.136 92.2713 318.997 91.8139 318.719C91.3594 318.438 91.0085 318.045 90.7614 317.543C90.517 317.037 90.3949 316.449 90.3949 315.778C90.3949 315.108 90.517 314.517 90.7614 314.006C91.0085 313.491 91.3523 313.091 91.7926 312.804C92.2358 312.514 92.7528 312.369 93.3438 312.369C93.6847 312.369 94.0213 312.426 94.3537 312.54C94.6861 312.653 94.9886 312.838 95.2614 313.094C95.5341 313.347 95.7514 313.682 95.9134 314.099C96.0753 314.517 96.1562 315.031 96.1562 315.642V316.068H91.1108V315.199H95.1335C95.1335 314.83 95.0597 314.5 94.9119 314.21C94.767 313.92 94.5597 313.692 94.2898 313.524C94.0227 313.357 93.7074 313.273 93.3438 313.273C92.9432 313.273 92.5966 313.372 92.304 313.571C92.0142 313.767 91.7912 314.023 91.6349 314.338C91.4787 314.653 91.4006 314.991 91.4006 315.352V315.932C91.4006 316.426 91.4858 316.845 91.6562 317.189C91.8295 317.53 92.0696 317.79 92.3764 317.969C92.6832 318.145 93.0398 318.233 93.446 318.233C93.7102 318.233 93.9489 318.196 94.1619 318.122C94.3778 318.045 94.5639 317.932 94.7202 317.781C94.8764 317.628 94.9972 317.437 95.0824 317.21L96.054 317.483C95.9517 317.812 95.7798 318.102 95.5384 318.352C95.2969 318.599 94.9986 318.793 94.6435 318.932C94.2884 319.068 93.8892 319.136 93.446 319.136Z" fill="#ADADAD"/>
<path d="M115.642 319L113.256 310.273H114.33L116.153 317.381H116.239L118.097 310.273H119.29L121.148 317.381H121.233L123.057 310.273H124.131L121.744 319H120.653L118.727 312.045H118.659L116.733 319H115.642ZM127.446 319.136C126.815 319.136 126.271 318.997 125.814 318.719C125.359 318.438 125.009 318.045 124.761 317.543C124.517 317.037 124.395 316.449 124.395 315.778C124.395 315.108 124.517 314.517 124.761 314.006C125.009 313.491 125.352 313.091 125.793 312.804C126.236 312.514 126.753 312.369 127.344 312.369C127.685 312.369 128.021 312.426 128.354 312.54C128.686 312.653 128.989 312.838 129.261 313.094C129.534 313.347 129.751 313.682 129.913 314.099C130.075 314.517 130.156 315.031 130.156 315.642V316.068H125.111V315.199H129.134C129.134 314.83 129.06 314.5 128.912 314.21C128.767 313.92 128.56 313.692 128.29 313.524C128.023 313.357 127.707 313.273 127.344 313.273C126.943 313.273 126.597 313.372 126.304 313.571C126.014 313.767 125.791 314.023 125.635 314.338C125.479 314.653 125.401 314.991 125.401 315.352V315.932C125.401 316.426 125.486 316.845 125.656 317.189C125.83 317.53 126.07 317.79 126.376 317.969C126.683 318.145 127.04 318.233 127.446 318.233C127.71 318.233 127.949 318.196 128.162 318.122C128.378 318.045 128.564 317.932 128.72 317.781C128.876 317.628 128.997 317.437 129.082 317.21L130.054 317.483C129.952 317.812 129.78 318.102 129.538 318.352C129.297 318.599 128.999 318.793 128.643 318.932C128.288 319.068 127.889 319.136 127.446 319.136ZM134.158 319.136C133.612 319.136 133.131 318.999 132.713 318.723C132.295 318.445 131.969 318.053 131.733 317.547C131.497 317.038 131.379 316.438 131.379 315.744C131.379 315.057 131.497 314.46 131.733 313.955C131.969 313.449 132.297 313.058 132.717 312.783C133.138 312.507 133.624 312.369 134.175 312.369C134.601 312.369 134.938 312.44 135.185 312.582C135.435 312.722 135.625 312.881 135.756 313.06C135.889 313.236 135.993 313.381 136.067 313.494H136.152V310.273H137.158V319H136.186V317.994H136.067C135.993 318.114 135.888 318.264 135.751 318.446C135.615 318.625 135.42 318.786 135.168 318.928C134.915 319.067 134.578 319.136 134.158 319.136ZM134.294 318.233C134.697 318.233 135.038 318.128 135.317 317.918C135.595 317.705 135.807 317.411 135.952 317.036C136.097 316.658 136.169 316.222 136.169 315.727C136.169 315.239 136.098 314.811 135.956 314.445C135.814 314.075 135.604 313.788 135.325 313.584C135.047 313.376 134.703 313.273 134.294 313.273C133.868 313.273 133.513 313.382 133.229 313.601C132.947 313.817 132.736 314.111 132.594 314.483C132.455 314.852 132.385 315.267 132.385 315.727C132.385 316.193 132.456 316.616 132.598 316.997C132.743 317.375 132.956 317.676 133.237 317.901C133.521 318.122 133.874 318.233 134.294 318.233Z" fill="#ADADAD"/>
<path d="M150.58 311.21V310.273H157.125V311.21H154.381V319H153.324V311.21H150.58ZM159.625 315.062V319H158.62V310.273H159.625V313.477H159.711C159.864 313.139 160.094 312.871 160.401 312.672C160.711 312.47 161.123 312.369 161.637 312.369C162.083 312.369 162.473 312.459 162.809 312.638C163.144 312.814 163.404 313.085 163.588 313.452C163.776 313.815 163.87 314.278 163.87 314.841V319H162.864V314.909C162.864 314.389 162.729 313.987 162.459 313.703C162.192 313.416 161.821 313.273 161.347 313.273C161.017 313.273 160.722 313.342 160.461 313.482C160.202 313.621 159.998 313.824 159.847 314.091C159.699 314.358 159.625 314.682 159.625 315.062ZM169.835 316.324V312.455H170.84V319H169.835V317.892H169.766C169.613 318.224 169.374 318.507 169.05 318.74C168.727 318.97 168.317 319.085 167.823 319.085C167.414 319.085 167.05 318.996 166.732 318.817C166.414 318.635 166.164 318.362 165.982 317.999C165.8 317.632 165.71 317.17 165.71 316.614V312.455H166.715V316.545C166.715 317.023 166.849 317.403 167.116 317.688C167.386 317.972 167.729 318.114 168.147 318.114C168.397 318.114 168.651 318.05 168.91 317.922C169.171 317.794 169.39 317.598 169.566 317.334C169.745 317.07 169.835 316.733 169.835 316.324Z" fill="#ADADAD"/>
<path d="M188.057 319V310.273H193.29V311.21H189.114V314.159H192.898V315.097H189.114V319H188.057ZM194.893 319V312.455H195.865V313.443H195.933C196.052 313.119 196.268 312.857 196.581 312.655C196.893 312.453 197.245 312.352 197.637 312.352C197.711 312.352 197.804 312.354 197.914 312.357C198.025 312.359 198.109 312.364 198.166 312.369V313.392C198.132 313.384 198.054 313.371 197.931 313.354C197.812 313.334 197.686 313.324 197.552 313.324C197.234 313.324 196.95 313.391 196.7 313.524C196.453 313.655 196.257 313.837 196.112 314.07C195.97 314.3 195.899 314.562 195.899 314.858V319H194.893ZM199.358 319V312.455H200.364V319H199.358ZM199.869 311.364C199.673 311.364 199.504 311.297 199.362 311.163C199.223 311.03 199.153 310.869 199.153 310.682C199.153 310.494 199.223 310.334 199.362 310.2C199.504 310.067 199.673 310 199.869 310C200.065 310 200.233 310.067 200.372 310.2C200.514 310.334 200.585 310.494 200.585 310.682C200.585 310.869 200.514 311.03 200.372 311.163C200.233 311.297 200.065 311.364 199.869 311.364Z" fill="#ADADAD"/>
<path d="M222.83 312.455C222.778 312.023 222.571 311.688 222.207 311.449C221.844 311.21 221.398 311.091 220.869 311.091C220.483 311.091 220.145 311.153 219.855 311.278C219.568 311.403 219.344 311.575 219.182 311.794C219.023 312.013 218.943 312.261 218.943 312.54C218.943 312.773 218.999 312.973 219.109 313.141C219.223 313.305 219.368 313.443 219.544 313.554C219.72 313.662 219.905 313.751 220.098 313.822C220.291 313.891 220.469 313.946 220.631 313.989L221.517 314.227C221.744 314.287 221.997 314.369 222.276 314.474C222.557 314.58 222.825 314.723 223.081 314.905C223.339 315.084 223.553 315.314 223.72 315.595C223.888 315.876 223.972 316.222 223.972 316.631C223.972 317.102 223.848 317.528 223.601 317.909C223.357 318.29 222.999 318.592 222.527 318.817C222.058 319.041 221.489 319.153 220.818 319.153C220.193 319.153 219.652 319.053 219.195 318.851C218.74 318.649 218.382 318.368 218.121 318.007C217.862 317.646 217.716 317.227 217.682 316.75H218.773C218.801 317.08 218.912 317.352 219.105 317.568C219.301 317.781 219.548 317.94 219.847 318.045C220.148 318.148 220.472 318.199 220.818 318.199C221.222 318.199 221.584 318.134 221.905 318.003C222.226 317.869 222.48 317.685 222.668 317.449C222.855 317.21 222.949 316.932 222.949 316.614C222.949 316.324 222.868 316.088 222.706 315.906C222.544 315.724 222.331 315.577 222.067 315.463C221.803 315.349 221.517 315.25 221.21 315.165L220.136 314.858C219.455 314.662 218.915 314.382 218.517 314.018C218.119 313.655 217.92 313.179 217.92 312.591C217.92 312.102 218.053 311.676 218.317 311.312C218.584 310.946 218.942 310.662 219.391 310.46C219.842 310.256 220.347 310.153 220.903 310.153C221.466 310.153 221.966 310.254 222.403 310.456C222.841 310.655 223.188 310.928 223.443 311.274C223.702 311.621 223.838 312.014 223.852 312.455H222.83ZM227.499 319.153C227.084 319.153 226.708 319.075 226.37 318.919C226.032 318.76 225.763 318.531 225.564 318.233C225.365 317.932 225.266 317.568 225.266 317.142C225.266 316.767 225.34 316.463 225.488 316.23C225.635 315.994 225.833 315.81 226.08 315.676C226.327 315.543 226.6 315.443 226.898 315.378C227.199 315.31 227.502 315.256 227.806 315.216C228.203 315.165 228.526 315.126 228.773 315.101C229.023 315.072 229.205 315.026 229.319 314.96C229.435 314.895 229.493 314.781 229.493 314.619V314.585C229.493 314.165 229.378 313.838 229.148 313.605C228.921 313.372 228.576 313.256 228.113 313.256C227.632 313.256 227.256 313.361 226.983 313.571C226.711 313.781 226.519 314.006 226.408 314.244L225.453 313.903C225.624 313.506 225.851 313.196 226.135 312.974C226.422 312.75 226.735 312.594 227.073 312.506C227.414 312.415 227.749 312.369 228.078 312.369C228.289 312.369 228.53 312.395 228.803 312.446C229.078 312.494 229.344 312.595 229.6 312.749C229.858 312.902 230.073 313.134 230.243 313.443C230.414 313.753 230.499 314.168 230.499 314.688V319H229.493V318.114H229.442C229.374 318.256 229.26 318.408 229.101 318.57C228.942 318.732 228.73 318.869 228.466 318.983C228.202 319.097 227.88 319.153 227.499 319.153ZM227.652 318.25C228.05 318.25 228.385 318.172 228.658 318.016C228.934 317.859 229.141 317.658 229.28 317.411C229.422 317.163 229.493 316.903 229.493 316.631V315.71C229.451 315.761 229.357 315.808 229.212 315.851C229.07 315.891 228.905 315.926 228.718 315.957C228.533 315.986 228.353 316.011 228.176 316.034C228.003 316.054 227.863 316.071 227.755 316.085C227.493 316.119 227.249 316.175 227.022 316.251C226.797 316.325 226.615 316.437 226.476 316.588C226.34 316.736 226.272 316.937 226.272 317.193C226.272 317.543 226.401 317.807 226.659 317.986C226.921 318.162 227.252 318.25 227.652 318.25ZM235.181 312.455V313.307H231.789V312.455H235.181ZM232.778 310.886H233.783V317.125C233.783 317.409 233.825 317.622 233.907 317.764C233.992 317.903 234.1 317.997 234.231 318.045C234.364 318.091 234.505 318.114 234.653 318.114C234.763 318.114 234.854 318.108 234.925 318.097C234.996 318.082 235.053 318.071 235.096 318.062L235.3 318.966C235.232 318.991 235.137 319.017 235.015 319.043C234.893 319.071 234.738 319.085 234.55 319.085C234.266 319.085 233.988 319.024 233.715 318.902C233.445 318.78 233.221 318.594 233.042 318.344C232.866 318.094 232.778 317.778 232.778 317.398V310.886Z" fill="#ADADAD"/>
<path d="M252.83 312.455C252.778 312.023 252.571 311.688 252.207 311.449C251.844 311.21 251.398 311.091 250.869 311.091C250.483 311.091 250.145 311.153 249.855 311.278C249.568 311.403 249.344 311.575 249.182 311.794C249.023 312.013 248.943 312.261 248.943 312.54C248.943 312.773 248.999 312.973 249.109 313.141C249.223 313.305 249.368 313.443 249.544 313.554C249.72 313.662 249.905 313.751 250.098 313.822C250.291 313.891 250.469 313.946 250.631 313.989L251.517 314.227C251.744 314.287 251.997 314.369 252.276 314.474C252.557 314.58 252.825 314.723 253.081 314.905C253.339 315.084 253.553 315.314 253.72 315.595C253.888 315.876 253.972 316.222 253.972 316.631C253.972 317.102 253.848 317.528 253.601 317.909C253.357 318.29 252.999 318.592 252.527 318.817C252.058 319.041 251.489 319.153 250.818 319.153C250.193 319.153 249.652 319.053 249.195 318.851C248.74 318.649 248.382 318.368 248.121 318.007C247.862 317.646 247.716 317.227 247.682 316.75H248.773C248.801 317.08 248.912 317.352 249.105 317.568C249.301 317.781 249.548 317.94 249.847 318.045C250.148 318.148 250.472 318.199 250.818 318.199C251.222 318.199 251.584 318.134 251.905 318.003C252.226 317.869 252.48 317.685 252.668 317.449C252.855 317.21 252.949 316.932 252.949 316.614C252.949 316.324 252.868 316.088 252.706 315.906C252.544 315.724 252.331 315.577 252.067 315.463C251.803 315.349 251.517 315.25 251.21 315.165L250.136 314.858C249.455 314.662 248.915 314.382 248.517 314.018C248.119 313.655 247.92 313.179 247.92 312.591C247.92 312.102 248.053 311.676 248.317 311.312C248.584 310.946 248.942 310.662 249.391 310.46C249.842 310.256 250.347 310.153 250.903 310.153C251.466 310.153 251.966 310.254 252.403 310.456C252.841 310.655 253.188 310.928 253.443 311.274C253.702 311.621 253.838 312.014 253.852 312.455H252.83ZM259.698 316.324V312.455H260.703V319H259.698V317.892H259.63C259.476 318.224 259.238 318.507 258.914 318.74C258.59 318.97 258.181 319.085 257.686 319.085C257.277 319.085 256.914 318.996 256.596 318.817C256.277 318.635 256.027 318.362 255.846 317.999C255.664 317.632 255.573 317.17 255.573 316.614V312.455H256.578V316.545C256.578 317.023 256.712 317.403 256.979 317.688C257.249 317.972 257.593 318.114 258.01 318.114C258.26 318.114 258.515 318.05 258.773 317.922C259.034 317.794 259.253 317.598 259.429 317.334C259.608 317.07 259.698 316.733 259.698 316.324ZM263.551 315.062V319H262.545V312.455H263.517V313.477H263.602C263.756 313.145 263.989 312.878 264.301 312.676C264.614 312.472 265.017 312.369 265.511 312.369C265.955 312.369 266.342 312.46 266.675 312.642C267.007 312.821 267.266 313.094 267.45 313.46C267.635 313.824 267.727 314.284 267.727 314.841V319H266.722V314.909C266.722 314.395 266.588 313.994 266.321 313.707C266.054 313.418 265.688 313.273 265.222 313.273C264.901 313.273 264.614 313.342 264.361 313.482C264.111 313.621 263.913 313.824 263.768 314.091C263.624 314.358 263.551 314.682 263.551 315.062Z" fill="#ADADAD"/>
<line x1="257.5" y1="295.019" x2="257.5" y2="61" stroke="#F4F4F4"/>
<line x1="257.5" y1="295.019" x2="257.5" y2="61" stroke="#F4F4F4"/>
<line x1="228.5" y1="293.019" x2="228.5" y2="59" stroke="#F4F4F4"/>
<line x1="228.5" y1="293.019" x2="228.5" y2="59" stroke="#F4F4F4"/>
<line x1="195.02" y1="293.009" x2="195.02" y2="58.9901" stroke="#F4F4F4"/>
<line x1="195.02" y1="293.009" x2="195.02" y2="58.9901" stroke="#F4F4F4"/>
<line x1="161.5" y1="293.009" x2="161.5" y2="58.9901" stroke="#F4F4F4"/>
<line x1="161.5" y1="293.009" x2="161.5" y2="58.9901" stroke="#F4F4F4"/>
<line x1="125.5" y1="293.009" x2="125.5" y2="58.9901" stroke="#F4F4F4"/>
<line x1="125.5" y1="293.009" x2="125.5" y2="58.9901" stroke="#F4F4F4"/>
<line x1="90.5" y1="293.009" x2="90.5" y2="58.9901" stroke="#F4F4F4"/>
<line x1="90.5" y1="293.009" x2="90.5" y2="58.9901" stroke="#F4F4F4"/>
<line x1="54.5" y1="293.019" x2="54.5" y2="59" stroke="#F4F4F4"/>
<line x1="54.5" y1="293.019" x2="54.5" y2="59" stroke="#F4F4F4"/>
<path d="M52 89.5C52 88.9477 52.4477 88.5 53 88.5H55C55.5523 88.5 56 88.9477 56 89.5V291.5C56 292.052 55.5523 292.5 55 292.5H53C52.4477 292.5 52 292.052 52 291.5V89.5Z" fill="#4100CC"/>
<rect x="89" y="149" width="4" height="144" rx="1" fill="#4100CC"/>
<rect x="124" y="128" width="4" height="165" rx="1" fill="#4100CC"/>
<rect x="160" y="231" width="4" height="62" rx="1" fill="#4100CC"/>
<rect x="194" y="179" width="4" height="114" rx="1" fill="#4100CC"/>
<rect x="225" y="108" width="4" height="185" rx="1" fill="#4100CC"/>
</svg>
