<svg width="731" height="353" viewBox="0 0 731 353" fill="none" xmlns="http://www.w3.org/2000/svg">
<rect width="731" height="337" fill="white"/>
<path d="M55.1307 314.818H56.3636V322.097C56.3636 322.746 56.2443 323.298 56.0057 323.752C55.767 324.206 55.4306 324.551 54.9964 324.786C54.5623 325.022 54.0502 325.139 53.4602 325.139C52.9034 325.139 52.4079 325.038 51.9737 324.836C51.5395 324.63 51.1982 324.339 50.9496 323.961C50.701 323.583 50.5767 323.134 50.5767 322.614H51.7898C51.7898 322.902 51.861 323.154 52.0036 323.369C52.1494 323.581 52.3482 323.747 52.6001 323.866C52.852 323.986 53.1387 324.045 53.4602 324.045C53.8149 324.045 54.1165 323.971 54.3651 323.822C54.6136 323.673 54.8026 323.454 54.9318 323.165C55.0644 322.874 55.1307 322.518 55.1307 322.097V314.818ZM60.9226 325.179C60.4387 325.179 59.9995 325.088 59.6051 324.906C59.2107 324.72 58.8975 324.453 58.6655 324.105C58.4335 323.754 58.3175 323.33 58.3175 322.832C58.3175 322.395 58.4036 322.04 58.576 321.768C58.7483 321.493 58.9787 321.278 59.267 321.122C59.5554 320.966 59.8736 320.85 60.2216 320.774C60.5729 320.695 60.9259 320.632 61.2805 320.585C61.7446 320.526 62.1207 320.481 62.4091 320.451C62.7008 320.418 62.9129 320.363 63.0455 320.287C63.1813 320.211 63.2493 320.078 63.2493 319.889V319.849C63.2493 319.359 63.1151 318.978 62.8466 318.706C62.5814 318.434 62.1787 318.298 61.6385 318.298C61.0784 318.298 60.6392 318.421 60.321 318.666C60.0028 318.911 59.7791 319.173 59.6499 319.452L58.5362 319.054C58.7351 318.59 59.0002 318.229 59.3317 317.97C59.6664 317.708 60.031 317.526 60.4254 317.423C60.8232 317.317 61.2143 317.264 61.5987 317.264C61.844 317.264 62.1257 317.294 62.4439 317.354C62.7654 317.41 63.0753 317.528 63.3736 317.707C63.6752 317.886 63.9254 318.156 64.1243 318.517C64.3232 318.878 64.4226 319.362 64.4226 319.969V325H63.2493V323.966H63.1896C63.1101 324.132 62.9775 324.309 62.7919 324.498C62.6063 324.687 62.3594 324.848 62.0511 324.98C61.7429 325.113 61.3667 325.179 60.9226 325.179ZM61.1016 324.125C61.5656 324.125 61.9567 324.034 62.2749 323.852C62.5964 323.669 62.8383 323.434 63.0007 323.146C63.1664 322.857 63.2493 322.554 63.2493 322.236V321.162C63.1996 321.222 63.0902 321.276 62.9212 321.326C62.7554 321.372 62.5632 321.414 62.3445 321.45C62.129 321.483 61.9186 321.513 61.7131 321.54C61.5109 321.563 61.3468 321.583 61.2209 321.599C60.916 321.639 60.6309 321.704 60.3658 321.793C60.1039 321.879 59.8918 322.01 59.7294 322.186C59.5703 322.358 59.4908 322.594 59.4908 322.892C59.4908 323.3 59.6416 323.608 59.9432 323.817C60.2481 324.022 60.6342 324.125 61.1016 324.125ZM67.7374 320.406V325H66.5641V317.364H67.6976V318.557H67.7971C67.976 318.169 68.2478 317.857 68.6124 317.622C68.977 317.384 69.4476 317.264 70.0243 317.264C70.5414 317.264 70.9938 317.37 71.3816 317.582C71.7694 317.791 72.071 318.109 72.2864 318.537C72.5018 318.961 72.6096 319.498 72.6096 320.148V325H71.4363V320.227C71.4363 319.627 71.2805 319.16 70.9689 318.825C70.6574 318.487 70.2298 318.318 69.6863 318.318C69.3117 318.318 68.977 318.399 68.682 318.562C68.3903 318.724 68.16 318.961 67.9909 319.273C67.8219 319.584 67.7374 319.962 67.7374 320.406Z" fill="#ADADAD"/>
<path d="M14.6335 294.818V305H13.4006V296.111H13.3409L10.8551 297.761V296.509L13.4006 294.818H14.6335ZM20.8828 305.139C20.1338 305.139 19.4957 304.935 18.9688 304.528C18.4418 304.117 18.0391 303.522 17.7607 302.743C17.4822 301.961 17.343 301.016 17.343 299.909C17.343 298.809 17.4822 297.869 17.7607 297.09C18.0424 296.308 18.4467 295.711 18.9737 295.3C19.504 294.886 20.1404 294.679 20.8828 294.679C21.6252 294.679 22.2599 294.886 22.7869 295.3C23.3172 295.711 23.7216 296.308 24 297.09C24.2817 297.869 24.4226 298.809 24.4226 299.909C24.4226 301.016 24.2834 301.961 24.005 302.743C23.7266 303.522 23.3239 304.117 22.7969 304.528C22.2699 304.935 21.6319 305.139 20.8828 305.139ZM20.8828 304.045C21.6252 304.045 22.2019 303.687 22.6129 302.972C23.0239 302.256 23.2294 301.235 23.2294 299.909C23.2294 299.027 23.1349 298.277 22.946 297.657C22.7604 297.037 22.492 296.565 22.1406 296.24C21.7926 295.915 21.3733 295.753 20.8828 295.753C20.147 295.753 19.572 296.116 19.1577 296.842C18.7434 297.564 18.5362 298.587 18.5362 299.909C18.5362 300.791 18.629 301.54 18.8146 302.156C19.0002 302.773 19.267 303.242 19.6151 303.563C19.9664 303.885 20.389 304.045 20.8828 304.045Z" fill="#ADADAD"/>
<path d="M11.054 275V274.105L14.4148 270.426C14.8092 269.995 15.134 269.621 15.3892 269.303C15.6444 268.981 15.8333 268.679 15.956 268.398C16.0819 268.113 16.1449 267.814 16.1449 267.503C16.1449 267.145 16.0587 266.835 15.8864 266.573C15.7173 266.311 15.4853 266.109 15.1903 265.967C14.8954 265.824 14.5639 265.753 14.196 265.753C13.8049 265.753 13.4635 265.834 13.1719 265.996C12.8835 266.156 12.6598 266.379 12.5007 266.668C12.3449 266.956 12.267 267.294 12.267 267.682H11.0938C11.0938 267.085 11.2313 266.562 11.5064 266.111C11.7815 265.66 12.156 265.309 12.63 265.057C13.1072 264.805 13.6425 264.679 14.2358 264.679C14.8324 264.679 15.361 264.805 15.8217 265.057C16.2824 265.309 16.6437 265.648 16.9055 266.076C17.1674 266.504 17.2983 266.979 17.2983 267.503C17.2983 267.877 17.2304 268.244 17.0945 268.602C16.9619 268.956 16.7299 269.352 16.3984 269.79C16.0703 270.224 15.6146 270.754 15.0312 271.381L12.7443 273.827V273.906H17.4773V275H11.054ZM22.8516 275.139C22.1025 275.139 21.4645 274.935 20.9375 274.528C20.4105 274.117 20.0078 273.522 19.7294 272.743C19.451 271.961 19.3118 271.016 19.3118 269.909C19.3118 268.809 19.451 267.869 19.7294 267.09C20.0111 266.308 20.4155 265.711 20.9425 265.3C21.4728 264.886 22.1091 264.679 22.8516 264.679C23.594 264.679 24.2287 264.886 24.7557 265.3C25.286 265.711 25.6903 266.308 25.9688 267.09C26.2505 267.869 26.3913 268.809 26.3913 269.909C26.3913 271.016 26.2521 271.961 25.9737 272.743C25.6953 273.522 25.2926 274.117 24.7656 274.528C24.2386 274.935 23.6006 275.139 22.8516 275.139ZM22.8516 274.045C23.594 274.045 24.1707 273.687 24.5817 272.972C24.9927 272.256 25.1982 271.235 25.1982 269.909C25.1982 269.027 25.1037 268.277 24.9148 267.657C24.7292 267.037 24.4607 266.565 24.1094 266.24C23.7614 265.915 23.3421 265.753 22.8516 265.753C22.1158 265.753 21.5407 266.116 21.1264 266.842C20.7121 267.564 20.505 268.587 20.505 269.909C20.505 270.791 20.5978 271.54 20.7834 272.156C20.969 272.773 21.2358 273.242 21.5838 273.563C21.9351 273.885 22.3577 274.045 22.8516 274.045Z" fill="#ADADAD"/>
<path d="M14.4943 245.139C13.8381 245.139 13.2531 245.027 12.7393 244.801C12.2289 244.576 11.8229 244.263 11.5213 243.862C11.223 243.457 11.0606 242.988 11.0341 242.455H12.2869C12.3134 242.783 12.4261 243.066 12.625 243.305C12.8239 243.54 13.084 243.722 13.4055 243.852C13.727 243.981 14.0833 244.045 14.4744 244.045C14.9119 244.045 15.2997 243.969 15.6378 243.817C15.9759 243.664 16.241 243.452 16.4332 243.18C16.6255 242.909 16.7216 242.594 16.7216 242.236C16.7216 241.861 16.6288 241.531 16.4432 241.246C16.2576 240.958 15.9858 240.733 15.6278 240.57C15.2699 240.408 14.8324 240.327 14.3153 240.327H13.5V239.233H14.3153C14.7197 239.233 15.0743 239.16 15.3793 239.014C15.6875 238.868 15.9278 238.663 16.1001 238.398C16.2758 238.133 16.3636 237.821 16.3636 237.463C16.3636 237.118 16.2874 236.818 16.1349 236.563C15.9825 236.308 15.767 236.109 15.4886 235.967C15.2135 235.824 14.8887 235.753 14.5142 235.753C14.1629 235.753 13.8314 235.817 13.5199 235.947C13.2116 236.073 12.9598 236.257 12.7642 236.499C12.5687 236.737 12.4626 237.026 12.446 237.364H11.2528C11.2727 236.83 11.4335 236.363 11.7351 235.962C12.0367 235.557 12.4311 235.242 12.9183 235.017C13.4089 234.792 13.9474 234.679 14.5341 234.679C15.1638 234.679 15.7041 234.807 16.1548 235.062C16.6056 235.314 16.9519 235.647 17.1939 236.061C17.4358 236.475 17.5568 236.923 17.5568 237.403C17.5568 237.977 17.406 238.466 17.1044 238.87C16.8061 239.274 16.4001 239.554 15.8864 239.71V239.79C16.5294 239.896 17.0315 240.169 17.3928 240.61C17.754 241.048 17.9347 241.589 17.9347 242.236C17.9347 242.789 17.7839 243.286 17.4822 243.727C17.1839 244.165 16.7763 244.509 16.2592 244.761C15.7422 245.013 15.1539 245.139 14.4943 245.139ZM23.2891 245.139C22.54 245.139 21.902 244.935 21.375 244.528C20.848 244.117 20.4453 243.522 20.1669 242.743C19.8885 241.961 19.7493 241.016 19.7493 239.909C19.7493 238.809 19.8885 237.869 20.1669 237.09C20.4486 236.308 20.853 235.711 21.38 235.3C21.9103 234.886 22.5466 234.679 23.2891 234.679C24.0315 234.679 24.6662 234.886 25.1932 235.3C25.7235 235.711 26.1278 236.308 26.4062 237.09C26.688 237.869 26.8288 238.809 26.8288 239.909C26.8288 241.016 26.6896 241.961 26.4112 242.743C26.1328 243.522 25.7301 244.117 25.2031 244.528C24.6761 244.935 24.0381 245.139 23.2891 245.139ZM23.2891 244.045C24.0315 244.045 24.6082 243.687 25.0192 242.972C25.4302 242.256 25.6357 241.235 25.6357 239.909C25.6357 239.027 25.5412 238.277 25.3523 237.657C25.1667 237.037 24.8982 236.565 24.5469 236.24C24.1989 235.915 23.7796 235.753 23.2891 235.753C22.5533 235.753 21.9782 236.116 21.5639 236.842C21.1496 237.564 20.9425 238.587 20.9425 239.909C20.9425 240.791 21.0353 241.54 21.2209 242.156C21.4065 242.773 21.6733 243.242 22.0213 243.563C22.3726 243.885 22.7952 244.045 23.2891 244.045Z" fill="#ADADAD"/>
<path d="M10.8153 212.912V211.898L15.2898 204.818H16.0256V206.389H15.5284L12.1477 211.739V211.818H18.1733V212.912H10.8153ZM15.608 215V212.604V212.131V204.818H16.7812V215H15.608ZM23.3574 215.139C22.6084 215.139 21.9703 214.935 21.4434 214.528C20.9164 214.117 20.5137 213.522 20.2353 212.743C19.9569 211.961 19.8176 211.016 19.8176 209.909C19.8176 208.809 19.9569 207.869 20.2353 207.09C20.517 206.308 20.9213 205.711 21.4483 205.3C21.9786 204.886 22.615 204.679 23.3574 204.679C24.0998 204.679 24.7346 204.886 25.2615 205.3C25.7918 205.711 26.1962 206.308 26.4746 207.09C26.7563 207.869 26.8972 208.809 26.8972 209.909C26.8972 211.016 26.758 211.961 26.4796 212.743C26.2012 213.522 25.7985 214.117 25.2715 214.528C24.7445 214.935 24.1065 215.139 23.3574 215.139ZM23.3574 214.045C24.0998 214.045 24.6766 213.687 25.0875 212.972C25.4985 212.256 25.704 211.235 25.704 209.909C25.704 209.027 25.6096 208.277 25.4206 207.657C25.235 207.037 24.9666 206.565 24.6152 206.24C24.2672 205.915 23.848 205.753 23.3574 205.753C22.6216 205.753 22.0466 206.116 21.6323 206.842C21.218 207.564 21.0108 208.587 21.0108 209.909C21.0108 210.791 21.1036 211.54 21.2892 212.156C21.4748 212.773 21.7417 213.242 22.0897 213.563C22.441 213.885 22.8636 214.045 23.3574 214.045Z" fill="#ADADAD"/>
<path d="M14.2358 185.139C13.6525 185.139 13.1271 185.023 12.6598 184.791C12.1925 184.559 11.8179 184.241 11.5362 183.837C11.2545 183.432 11.1004 182.972 11.0739 182.455H12.267C12.3134 182.915 12.5223 183.296 12.8935 183.598C13.268 183.896 13.7154 184.045 14.2358 184.045C14.6534 184.045 15.0246 183.948 15.3494 183.752C15.6776 183.557 15.9344 183.288 16.12 182.947C16.3089 182.602 16.4034 182.213 16.4034 181.778C16.4034 181.334 16.3056 180.938 16.1101 180.59C15.9179 180.239 15.6527 179.962 15.3146 179.76C14.9766 179.558 14.5904 179.455 14.1562 179.452C13.8447 179.448 13.5249 179.496 13.1967 179.596C12.8686 179.692 12.5985 179.816 12.3864 179.969L11.233 179.83L11.8494 174.818H17.1392V175.912H12.8835L12.5256 178.915H12.5852C12.794 178.749 13.0559 178.612 13.3707 178.502C13.6856 178.393 14.0137 178.338 14.3551 178.338C14.9782 178.338 15.5334 178.487 16.0206 178.786C16.5111 179.08 16.8956 179.485 17.174 179.999C17.4557 180.512 17.5966 181.099 17.5966 181.759C17.5966 182.408 17.4508 182.988 17.1591 183.499C16.8707 184.006 16.473 184.407 15.9659 184.702C15.4588 184.993 14.8821 185.139 14.2358 185.139ZM22.8926 185.139C22.1435 185.139 21.5055 184.935 20.9785 184.528C20.4515 184.117 20.0488 183.522 19.7704 182.743C19.492 181.961 19.3528 181.016 19.3528 179.909C19.3528 178.809 19.492 177.869 19.7704 177.09C20.0521 176.308 20.4565 175.711 20.9835 175.3C21.5138 174.886 22.1502 174.679 22.8926 174.679C23.635 174.679 24.2697 174.886 24.7967 175.3C25.327 175.711 25.7314 176.308 26.0098 177.09C26.2915 177.869 26.4324 178.809 26.4324 179.909C26.4324 181.016 26.2931 181.961 26.0147 182.743C25.7363 183.522 25.3336 184.117 24.8066 184.528C24.2797 184.935 23.6416 185.139 22.8926 185.139ZM22.8926 184.045C23.635 184.045 24.2117 183.687 24.6227 182.972C25.0337 182.256 25.2392 181.235 25.2392 179.909C25.2392 179.027 25.1447 178.277 24.9558 177.657C24.7702 177.037 24.5017 176.565 24.1504 176.24C23.8024 175.915 23.3831 175.753 22.8926 175.753C22.1568 175.753 21.5817 176.116 21.1674 176.842C20.7531 177.564 20.546 178.587 20.546 179.909C20.546 180.791 20.6388 181.54 20.8244 182.156C21.01 182.773 21.2768 183.242 21.6248 183.563C21.9761 183.885 22.3987 184.045 22.8926 184.045Z" fill="#ADADAD"/>
<path d="M14.4347 155.139C14.017 155.133 13.5994 155.053 13.1818 154.901C12.7642 154.748 12.383 154.491 12.0384 154.13C11.6937 153.765 11.4169 153.273 11.2081 152.653C10.9993 152.03 10.8949 151.248 10.8949 150.307C10.8949 149.405 10.9794 148.607 11.1484 147.911C11.3175 147.211 11.5627 146.623 11.8842 146.146C12.2057 145.665 12.5935 145.3 13.0476 145.052C13.505 144.803 14.0204 144.679 14.5938 144.679C15.1638 144.679 15.6709 144.793 16.1151 145.022C16.5625 145.247 16.9271 145.562 17.2088 145.967C17.4905 146.371 17.6728 146.837 17.7557 147.364H16.5426C16.4299 146.906 16.2112 146.527 15.8864 146.225C15.5616 145.924 15.1307 145.773 14.5938 145.773C13.8049 145.773 13.1835 146.116 12.7294 146.802C12.2786 147.488 12.0516 148.451 12.0483 149.69H12.1278C12.3134 149.409 12.5339 149.168 12.7891 148.969C13.0476 148.767 13.3326 148.612 13.6442 148.502C13.9557 148.393 14.2855 148.338 14.6335 148.338C15.2169 148.338 15.7505 148.484 16.2344 148.776C16.7183 149.064 17.1061 149.463 17.3977 149.974C17.6894 150.481 17.8352 151.062 17.8352 151.719C17.8352 152.348 17.6944 152.925 17.4126 153.449C17.1309 153.969 16.7348 154.384 16.2244 154.692C15.7173 154.997 15.1207 155.146 14.4347 155.139ZM14.4347 154.045C14.8523 154.045 15.2268 153.941 15.5582 153.732C15.893 153.523 16.1565 153.243 16.3487 152.892C16.5443 152.541 16.642 152.15 16.642 151.719C16.642 151.298 16.5476 150.915 16.3587 150.57C16.1731 150.222 15.9162 149.946 15.5881 149.74C15.2633 149.535 14.892 149.432 14.4744 149.432C14.1596 149.432 13.8662 149.495 13.5945 149.621C13.3227 149.743 13.084 149.912 12.8786 150.128C12.6764 150.343 12.5173 150.59 12.4013 150.869C12.2853 151.144 12.2273 151.434 12.2273 151.739C12.2273 152.143 12.3217 152.521 12.5107 152.872C12.7029 153.223 12.9647 153.507 13.2962 153.722C13.6309 153.938 14.0104 154.045 14.4347 154.045ZM23.1113 155.139C22.3623 155.139 21.7243 154.935 21.1973 154.528C20.6703 154.117 20.2676 153.522 19.9892 152.743C19.7108 151.961 19.5716 151.016 19.5716 149.909C19.5716 148.809 19.7108 147.869 19.9892 147.09C20.2709 146.308 20.6752 145.711 21.2022 145.3C21.7325 144.886 22.3689 144.679 23.1113 144.679C23.8538 144.679 24.4885 144.886 25.0154 145.3C25.5458 145.711 25.9501 146.308 26.2285 147.09C26.5102 147.869 26.6511 148.809 26.6511 149.909C26.6511 151.016 26.5119 151.961 26.2335 152.743C25.9551 153.522 25.5524 154.117 25.0254 154.528C24.4984 154.935 23.8604 155.139 23.1113 155.139ZM23.1113 154.045C23.8538 154.045 24.4305 153.687 24.8414 152.972C25.2524 152.256 25.4579 151.235 25.4579 149.909C25.4579 149.027 25.3635 148.277 25.1745 147.657C24.9889 147.037 24.7205 146.565 24.3691 146.24C24.0211 145.915 23.6019 145.753 23.1113 145.753C22.3755 145.753 21.8005 146.116 21.3862 146.842C20.9719 147.564 20.7647 148.587 20.7647 149.909C20.7647 150.791 20.8575 151.54 21.0431 152.156C21.2288 152.773 21.4956 153.242 21.8436 153.563C22.1949 153.885 22.6175 154.045 23.1113 154.045Z" fill="#ADADAD"/>
<path d="M11.3722 125L15.9261 115.991V115.912H10.6761V114.818H17.1989V115.972L12.6648 125H11.3722ZM22.1543 125.139C21.4052 125.139 20.7672 124.935 20.2402 124.528C19.7132 124.117 19.3105 123.522 19.0321 122.743C18.7537 121.961 18.6145 121.016 18.6145 119.909C18.6145 118.809 18.7537 117.869 19.0321 117.09C19.3139 116.308 19.7182 115.711 20.2452 115.3C20.7755 114.886 21.4119 114.679 22.1543 114.679C22.8967 114.679 23.5314 114.886 24.0584 115.3C24.5887 115.711 24.9931 116.308 25.2715 117.09C25.5532 117.869 25.6941 118.809 25.6941 119.909C25.6941 121.016 25.5549 121.961 25.2765 122.743C24.998 123.522 24.5953 124.117 24.0684 124.528C23.5414 124.935 22.9033 125.139 22.1543 125.139ZM22.1543 124.045C22.8967 124.045 23.4734 123.687 23.8844 122.972C24.2954 122.256 24.5009 121.235 24.5009 119.909C24.5009 119.027 24.4064 118.277 24.2175 117.657C24.0319 117.037 23.7634 116.565 23.4121 116.24C23.0641 115.915 22.6448 115.753 22.1543 115.753C21.4185 115.753 20.8435 116.116 20.4292 116.842C20.0149 117.564 19.8077 118.587 19.8077 119.909C19.8077 120.791 19.9005 121.54 20.0861 122.156C20.2717 122.773 20.5385 123.242 20.8865 123.563C21.2379 123.885 21.6605 124.045 22.1543 124.045Z" fill="#ADADAD"/>
<path d="M14.3153 95.1392C13.6326 95.1392 13.0294 95.0182 12.5057 94.7763C11.9853 94.531 11.5793 94.1946 11.2876 93.767C10.996 93.3362 10.8518 92.8456 10.8551 92.2955C10.8518 91.8646 10.9363 91.4669 11.1087 91.1023C11.281 90.7344 11.5163 90.4278 11.8146 90.1825C12.1162 89.9339 12.4527 89.7765 12.8239 89.7102V89.6506C12.3366 89.5246 11.9489 89.2512 11.6605 88.8303C11.3722 88.406 11.2296 87.9238 11.233 87.3835C11.2296 86.8665 11.3606 86.4041 11.6257 85.9964C11.8909 85.5888 12.2554 85.2673 12.7195 85.032C13.1868 84.7966 13.7188 84.679 14.3153 84.679C14.9053 84.679 15.4323 84.7966 15.8963 85.032C16.3603 85.2673 16.7249 85.5888 16.9901 85.9964C17.2585 86.4041 17.3944 86.8665 17.3977 87.3835C17.3944 87.9238 17.2469 88.406 16.9553 88.8303C16.6669 89.2512 16.2841 89.5246 15.8068 89.6506V89.7102C16.1747 89.7765 16.5062 89.9339 16.8011 90.1825C17.0961 90.4278 17.3314 90.7344 17.5071 91.1023C17.6828 91.4669 17.7723 91.8646 17.7756 92.2955C17.7723 92.8456 17.6231 93.3362 17.3281 93.767C17.0365 94.1946 16.6304 94.531 16.1101 94.7763C15.593 95.0182 14.9948 95.1392 14.3153 95.1392ZM14.3153 94.0455C14.776 94.0455 15.1738 93.9709 15.5085 93.8217C15.8433 93.6726 16.1018 93.4621 16.2841 93.1903C16.4664 92.9186 16.5592 92.6004 16.5625 92.2358C16.5592 91.8513 16.4598 91.5116 16.2642 91.2166C16.0687 90.9216 15.8018 90.6896 15.4638 90.5206C15.129 90.3516 14.7462 90.267 14.3153 90.267C13.8812 90.267 13.4934 90.3516 13.152 90.5206C12.8139 90.6896 12.5471 90.9216 12.3516 91.2166C12.1593 91.5116 12.0649 91.8513 12.0682 92.2358C12.0649 92.6004 12.1527 92.9186 12.3317 93.1903C12.514 93.4621 12.7741 93.6726 13.1122 93.8217C13.4503 93.9709 13.8513 94.0455 14.3153 94.0455ZM14.3153 89.2131C14.6799 89.2131 15.0031 89.1402 15.2848 88.9943C15.5698 88.8485 15.7936 88.6446 15.956 88.3828C16.1184 88.121 16.2012 87.8144 16.2045 87.4631C16.2012 87.1184 16.12 86.8184 15.9609 86.5632C15.8018 86.3047 15.5814 86.1058 15.2997 85.9666C15.018 85.8241 14.6899 85.7528 14.3153 85.7528C13.9342 85.7528 13.6011 85.8241 13.3161 85.9666C13.031 86.1058 12.8106 86.3047 12.6548 86.5632C12.4991 86.8184 12.4228 87.1184 12.4261 87.4631C12.4228 87.8144 12.5007 88.121 12.6598 88.3828C12.8222 88.6446 13.0459 88.8485 13.331 88.9943C13.616 89.1402 13.9441 89.2131 14.3153 89.2131ZM23.002 95.1392C22.2529 95.1392 21.6149 94.9354 21.0879 94.5277C20.5609 94.1167 20.1582 93.5218 19.8798 92.7429C19.6014 91.9607 19.4622 91.0161 19.4622 89.9091C19.4622 88.8087 19.6014 87.8691 19.8798 87.0902C20.1615 86.308 20.5659 85.7114 21.0929 85.3004C21.6232 84.8861 22.2595 84.679 23.002 84.679C23.7444 84.679 24.3791 84.8861 24.9061 85.3004C25.4364 85.7114 25.8407 86.308 26.1191 87.0902C26.4009 87.8691 26.5417 88.8087 26.5417 89.9091C26.5417 91.0161 26.4025 91.9607 26.1241 92.7429C25.8457 93.5218 25.443 94.1167 24.916 94.5277C24.389 94.9354 23.751 95.1392 23.002 95.1392ZM23.002 94.0455C23.7444 94.0455 24.3211 93.6875 24.7321 92.9716C25.1431 92.2557 25.3485 91.2348 25.3485 89.9091C25.3485 89.0275 25.2541 88.2768 25.0652 87.657C24.8796 87.0372 24.6111 86.5649 24.2598 86.2401C23.9118 85.9152 23.4925 85.7528 23.002 85.7528C22.2662 85.7528 21.6911 86.1158 21.2768 86.8416C20.8625 87.5642 20.6554 88.5866 20.6554 89.9091C20.6554 90.7907 20.7482 91.5398 20.9338 92.1562C21.1194 92.7727 21.3862 93.2417 21.7342 93.5632C22.0855 93.8847 22.5081 94.0455 23.002 94.0455Z" fill="#ADADAD"/>
<path d="M111.233 325V314.818H117.338V315.912H112.466V319.352H116.881V320.446H112.466V325H111.233ZM121.932 325.159C121.196 325.159 120.561 324.997 120.028 324.672C119.497 324.344 119.088 323.886 118.8 323.3C118.515 322.71 118.372 322.024 118.372 321.241C118.372 320.459 118.515 319.77 118.8 319.173C119.088 318.573 119.489 318.106 120.003 317.771C120.52 317.433 121.123 317.264 121.812 317.264C122.21 317.264 122.603 317.33 122.991 317.463C123.379 317.596 123.732 317.811 124.05 318.109C124.368 318.404 124.621 318.795 124.81 319.283C124.999 319.77 125.094 320.37 125.094 321.082V321.58H119.207V320.565H123.901C123.901 320.134 123.814 319.75 123.642 319.412C123.473 319.074 123.231 318.807 122.916 318.612C122.605 318.416 122.237 318.318 121.812 318.318C121.345 318.318 120.941 318.434 120.599 318.666C120.261 318.895 120.001 319.193 119.819 319.561C119.637 319.929 119.545 320.323 119.545 320.744V321.42C119.545 321.997 119.645 322.486 119.844 322.887C120.046 323.285 120.326 323.588 120.684 323.797C121.042 324.002 121.458 324.105 121.932 324.105C122.24 324.105 122.518 324.062 122.767 323.976C123.019 323.886 123.236 323.754 123.418 323.578C123.601 323.399 123.741 323.177 123.841 322.912L124.974 323.23C124.855 323.615 124.655 323.953 124.373 324.244C124.091 324.533 123.743 324.758 123.329 324.92C122.915 325.08 122.449 325.159 121.932 325.159ZM127.038 325V314.818H128.211V318.577H128.31C128.397 318.444 128.516 318.275 128.668 318.07C128.824 317.861 129.046 317.675 129.335 317.513C129.626 317.347 130.021 317.264 130.518 317.264C131.161 317.264 131.728 317.425 132.218 317.746C132.709 318.068 133.091 318.524 133.366 319.114C133.642 319.704 133.779 320.4 133.779 321.202C133.779 322.01 133.642 322.711 133.366 323.305C133.091 323.895 132.71 324.352 132.223 324.677C131.736 324.998 131.174 325.159 130.538 325.159C130.047 325.159 129.654 325.078 129.359 324.915C129.064 324.75 128.837 324.562 128.678 324.354C128.519 324.142 128.397 323.966 128.31 323.827H128.171V325H127.038ZM128.191 321.182C128.191 321.759 128.276 322.267 128.445 322.708C128.614 323.146 128.861 323.489 129.185 323.737C129.51 323.982 129.908 324.105 130.379 324.105C130.869 324.105 131.278 323.976 131.607 323.717C131.938 323.455 132.187 323.104 132.352 322.663C132.521 322.219 132.606 321.725 132.606 321.182C132.606 320.645 132.523 320.161 132.357 319.73C132.195 319.296 131.948 318.953 131.616 318.701C131.288 318.446 130.876 318.318 130.379 318.318C129.901 318.318 129.5 318.439 129.175 318.681C128.851 318.92 128.605 319.254 128.44 319.685C128.274 320.113 128.191 320.612 128.191 321.182Z" fill="#ADADAD"/>
<path d="M171.233 314.818H172.705L176.165 323.27H176.284L179.744 314.818H181.216V325H180.062V317.264H179.963L176.781 325H175.668L172.486 317.264H172.386V325H171.233V314.818ZM185.776 325.179C185.292 325.179 184.853 325.088 184.459 324.906C184.064 324.72 183.751 324.453 183.519 324.105C183.287 323.754 183.171 323.33 183.171 322.832C183.171 322.395 183.257 322.04 183.43 321.768C183.602 321.493 183.832 321.278 184.121 321.122C184.409 320.966 184.727 320.85 185.075 320.774C185.426 320.695 185.779 320.632 186.134 320.585C186.598 320.526 186.974 320.481 187.263 320.451C187.554 320.418 187.766 320.363 187.899 320.287C188.035 320.211 188.103 320.078 188.103 319.889V319.849C188.103 319.359 187.969 318.978 187.7 318.706C187.435 318.434 187.032 318.298 186.492 318.298C185.932 318.298 185.493 318.421 185.175 318.666C184.856 318.911 184.633 319.173 184.503 319.452L183.39 319.054C183.589 318.59 183.854 318.229 184.185 317.97C184.52 317.708 184.885 317.526 185.279 317.423C185.677 317.317 186.068 317.264 186.452 317.264C186.698 317.264 186.979 317.294 187.297 317.354C187.619 317.41 187.929 317.528 188.227 317.707C188.529 317.886 188.779 318.156 188.978 318.517C189.177 318.878 189.276 319.362 189.276 319.969V325H188.103V323.966H188.043C187.964 324.132 187.831 324.309 187.645 324.498C187.46 324.687 187.213 324.848 186.905 324.98C186.596 325.113 186.22 325.179 185.776 325.179ZM185.955 324.125C186.419 324.125 186.81 324.034 187.128 323.852C187.45 323.669 187.692 323.434 187.854 323.146C188.02 322.857 188.103 322.554 188.103 322.236V321.162C188.053 321.222 187.944 321.276 187.775 321.326C187.609 321.372 187.417 321.414 187.198 321.45C186.983 321.483 186.772 321.513 186.567 321.54C186.364 321.563 186.2 321.583 186.074 321.599C185.769 321.639 185.484 321.704 185.219 321.793C184.957 321.879 184.745 322.01 184.583 322.186C184.424 322.358 184.344 322.594 184.344 322.892C184.344 323.3 184.495 323.608 184.797 323.817C185.102 324.022 185.488 324.125 185.955 324.125ZM191.418 325V317.364H192.551V318.517H192.631C192.77 318.139 193.022 317.833 193.386 317.597C193.751 317.362 194.162 317.244 194.619 317.244C194.705 317.244 194.813 317.246 194.942 317.249C195.072 317.253 195.17 317.258 195.236 317.264V318.457C195.196 318.447 195.105 318.433 194.962 318.413C194.823 318.389 194.676 318.378 194.52 318.378C194.149 318.378 193.817 318.456 193.526 318.612C193.237 318.764 193.009 318.976 192.839 319.248C192.674 319.516 192.591 319.823 192.591 320.168V325H191.418Z" fill="#ADADAD"/>
<path d="M231.651 325H230.358L234.097 314.818H235.369L239.108 325H237.815L234.773 316.429H234.693L231.651 325ZM232.128 321.023H237.338V322.116H232.128V321.023ZM240.535 327.864V317.364H241.668V318.577H241.808C241.894 318.444 242.013 318.275 242.165 318.07C242.321 317.861 242.543 317.675 242.832 317.513C243.123 317.347 243.518 317.264 244.015 317.264C244.658 317.264 245.225 317.425 245.715 317.746C246.206 318.068 246.589 318.524 246.864 319.114C247.139 319.704 247.276 320.4 247.276 321.202C247.276 322.01 247.139 322.711 246.864 323.305C246.589 323.895 246.207 324.352 245.72 324.677C245.233 324.998 244.671 325.159 244.035 325.159C243.544 325.159 243.152 325.078 242.857 324.915C242.562 324.75 242.335 324.562 242.175 324.354C242.016 324.142 241.894 323.966 241.808 323.827H241.708V327.864H240.535ZM241.688 321.182C241.688 321.759 241.773 322.267 241.942 322.708C242.111 323.146 242.358 323.489 242.683 323.737C243.007 323.982 243.405 324.105 243.876 324.105C244.366 324.105 244.776 323.976 245.104 323.717C245.435 323.455 245.684 323.104 245.849 322.663C246.018 322.219 246.103 321.725 246.103 321.182C246.103 320.645 246.02 320.161 245.854 319.73C245.692 319.296 245.445 318.953 245.114 318.701C244.786 318.446 244.373 318.318 243.876 318.318C243.398 318.318 242.997 318.439 242.673 318.681C242.348 318.92 242.103 319.254 241.937 319.685C241.771 320.113 241.688 320.612 241.688 321.182ZM249.066 325V317.364H250.2V318.517H250.279C250.418 318.139 250.67 317.833 251.035 317.597C251.399 317.362 251.81 317.244 252.268 317.244C252.354 317.244 252.462 317.246 252.591 317.249C252.72 317.253 252.818 317.258 252.884 317.264V318.457C252.844 318.447 252.753 318.433 252.611 318.413C252.472 318.389 252.324 318.378 252.168 318.378C251.797 318.378 251.466 318.456 251.174 318.612C250.886 318.764 250.657 318.976 250.488 319.248C250.322 319.516 250.239 319.823 250.239 320.168V325H249.066Z" fill="#ADADAD"/>
<path d="M291.233 314.818H292.705L296.165 323.27H296.284L299.744 314.818H301.216V325H300.062V317.264H299.963L296.781 325H295.668L292.486 317.264H292.386V325H291.233V314.818ZM305.776 325.179C305.292 325.179 304.853 325.088 304.459 324.906C304.064 324.72 303.751 324.453 303.519 324.105C303.287 323.754 303.171 323.33 303.171 322.832C303.171 322.395 303.257 322.04 303.43 321.768C303.602 321.493 303.832 321.278 304.121 321.122C304.409 320.966 304.727 320.85 305.075 320.774C305.426 320.695 305.779 320.632 306.134 320.585C306.598 320.526 306.974 320.481 307.263 320.451C307.554 320.418 307.766 320.363 307.899 320.287C308.035 320.211 308.103 320.078 308.103 319.889V319.849C308.103 319.359 307.969 318.978 307.7 318.706C307.435 318.434 307.032 318.298 306.492 318.298C305.932 318.298 305.493 318.421 305.175 318.666C304.856 318.911 304.633 319.173 304.503 319.452L303.39 319.054C303.589 318.59 303.854 318.229 304.185 317.97C304.52 317.708 304.885 317.526 305.279 317.423C305.677 317.317 306.068 317.264 306.452 317.264C306.698 317.264 306.979 317.294 307.297 317.354C307.619 317.41 307.929 317.528 308.227 317.707C308.529 317.886 308.779 318.156 308.978 318.517C309.177 318.878 309.276 319.362 309.276 319.969V325H308.103V323.966H308.043C307.964 324.132 307.831 324.309 307.645 324.498C307.46 324.687 307.213 324.848 306.905 324.98C306.596 325.113 306.22 325.179 305.776 325.179ZM305.955 324.125C306.419 324.125 306.81 324.034 307.128 323.852C307.45 323.669 307.692 323.434 307.854 323.146C308.02 322.857 308.103 322.554 308.103 322.236V321.162C308.053 321.222 307.944 321.276 307.775 321.326C307.609 321.372 307.417 321.414 307.198 321.45C306.983 321.483 306.772 321.513 306.567 321.54C306.364 321.563 306.2 321.583 306.074 321.599C305.769 321.639 305.484 321.704 305.219 321.793C304.957 321.879 304.745 322.01 304.583 322.186C304.424 322.358 304.344 322.594 304.344 322.892C304.344 323.3 304.495 323.608 304.797 323.817C305.102 324.022 305.488 324.125 305.955 324.125ZM311.9 327.864C311.701 327.864 311.524 327.847 311.368 327.814C311.212 327.784 311.104 327.754 311.045 327.724L311.343 326.69C311.628 326.763 311.88 326.79 312.099 326.77C312.317 326.75 312.511 326.652 312.68 326.477C312.853 326.304 313.01 326.024 313.153 325.636L313.371 325.04L310.548 317.364H311.82L313.928 323.449H314.008L316.116 317.364H317.388L314.147 326.114C314.001 326.508 313.821 326.835 313.605 327.093C313.39 327.355 313.139 327.549 312.854 327.675C312.573 327.801 312.254 327.864 311.9 327.864Z" fill="#ADADAD"/>
<path d="M355.131 314.818H356.364V322.097C356.364 322.746 356.244 323.298 356.006 323.752C355.767 324.206 355.431 324.551 354.996 324.786C354.562 325.022 354.05 325.139 353.46 325.139C352.903 325.139 352.408 325.038 351.974 324.836C351.54 324.63 351.198 324.339 350.95 323.961C350.701 323.583 350.577 323.134 350.577 322.614H351.79C351.79 322.902 351.861 323.154 352.004 323.369C352.149 323.581 352.348 323.747 352.6 323.866C352.852 323.986 353.139 324.045 353.46 324.045C353.815 324.045 354.116 323.971 354.365 323.822C354.614 323.673 354.803 323.454 354.932 323.165C355.064 322.874 355.131 322.518 355.131 322.097V314.818ZM363.488 321.878V317.364H364.661V325H363.488V323.707H363.408C363.229 324.095 362.951 324.425 362.573 324.697C362.195 324.965 361.718 325.099 361.141 325.099C360.664 325.099 360.24 324.995 359.869 324.786C359.497 324.574 359.206 324.256 358.994 323.832C358.781 323.404 358.675 322.866 358.675 322.216V317.364H359.849V322.136C359.849 322.693 360.004 323.137 360.316 323.469C360.631 323.8 361.032 323.966 361.519 323.966C361.811 323.966 362.107 323.891 362.409 323.742C362.714 323.593 362.969 323.364 363.175 323.056C363.384 322.748 363.488 322.355 363.488 321.878ZM367.983 320.406V325H366.81V317.364H367.944V318.557H368.043C368.222 318.169 368.494 317.857 368.858 317.622C369.223 317.384 369.694 317.264 370.27 317.264C370.787 317.264 371.24 317.37 371.628 317.582C372.015 317.791 372.317 318.109 372.532 318.537C372.748 318.961 372.856 319.498 372.856 320.148V325H371.682V320.227C371.682 319.627 371.527 319.16 371.215 318.825C370.903 318.487 370.476 318.318 369.932 318.318C369.558 318.318 369.223 318.399 368.928 318.562C368.636 318.724 368.406 318.961 368.237 319.273C368.068 319.584 367.983 319.962 367.983 320.406Z" fill="#ADADAD"/>
<path d="M415.131 314.818H416.364V322.097C416.364 322.746 416.244 323.298 416.006 323.752C415.767 324.206 415.431 324.551 414.996 324.786C414.562 325.022 414.05 325.139 413.46 325.139C412.903 325.139 412.408 325.038 411.974 324.836C411.54 324.63 411.198 324.339 410.95 323.961C410.701 323.583 410.577 323.134 410.577 322.614H411.79C411.79 322.902 411.861 323.154 412.004 323.369C412.149 323.581 412.348 323.747 412.6 323.866C412.852 323.986 413.139 324.045 413.46 324.045C413.815 324.045 414.116 323.971 414.365 323.822C414.614 323.673 414.803 323.454 414.932 323.165C415.064 322.874 415.131 322.518 415.131 322.097V314.818ZM423.488 321.878V317.364H424.661V325H423.488V323.707H423.408C423.229 324.095 422.951 324.425 422.573 324.697C422.195 324.965 421.718 325.099 421.141 325.099C420.664 325.099 420.24 324.995 419.869 324.786C419.497 324.574 419.206 324.256 418.994 323.832C418.781 323.404 418.675 322.866 418.675 322.216V317.364H419.849V322.136C419.849 322.693 420.004 323.137 420.316 323.469C420.631 323.8 421.032 323.966 421.519 323.966C421.811 323.966 422.107 323.891 422.409 323.742C422.714 323.593 422.969 323.364 423.175 323.056C423.384 322.748 423.488 322.355 423.488 321.878ZM427.983 314.818V325H426.81V314.818H427.983Z" fill="#ADADAD"/>
<path d="M471.651 325H470.358L474.097 314.818H475.369L479.108 325H477.815L474.773 316.429H474.693L471.651 325ZM472.128 321.023H477.338V322.116H472.128V321.023ZM485.347 321.878V317.364H486.521V325H485.347V323.707H485.268C485.089 324.095 484.81 324.425 484.433 324.697C484.055 324.965 483.577 325.099 483.001 325.099C482.523 325.099 482.099 324.995 481.728 324.786C481.357 324.574 481.065 324.256 480.853 323.832C480.641 323.404 480.535 322.866 480.535 322.216V317.364H481.708V322.136C481.708 322.693 481.864 323.137 482.175 323.469C482.49 323.8 482.891 323.966 483.379 323.966C483.67 323.966 483.967 323.891 484.268 323.742C484.573 323.593 484.829 323.364 485.034 323.056C485.243 322.748 485.347 322.355 485.347 321.878ZM491.752 328.023C491.185 328.023 490.698 327.95 490.29 327.804C489.883 327.661 489.543 327.473 489.271 327.237C489.003 327.005 488.789 326.757 488.63 326.491L489.564 325.835C489.671 325.974 489.805 326.134 489.967 326.312C490.13 326.495 490.352 326.652 490.633 326.785C490.918 326.921 491.291 326.989 491.752 326.989C492.368 326.989 492.877 326.839 493.278 326.541C493.679 326.243 493.88 325.776 493.88 325.139V323.588H493.78C493.694 323.727 493.572 323.9 493.412 324.105C493.257 324.307 493.031 324.488 492.736 324.647C492.445 324.803 492.05 324.881 491.553 324.881C490.937 324.881 490.383 324.735 489.893 324.443C489.405 324.152 489.019 323.727 488.734 323.17C488.452 322.614 488.312 321.937 488.312 321.142C488.312 320.36 488.449 319.679 488.724 319.099C488.999 318.515 489.382 318.065 489.873 317.746C490.363 317.425 490.93 317.264 491.573 317.264C492.07 317.264 492.465 317.347 492.756 317.513C493.051 317.675 493.277 317.861 493.432 318.07C493.591 318.275 493.714 318.444 493.8 318.577H493.92V317.364H495.053V325.219C495.053 325.875 494.904 326.409 494.606 326.82C494.311 327.234 493.913 327.537 493.412 327.729C492.915 327.925 492.362 328.023 491.752 328.023ZM491.712 323.827C492.183 323.827 492.581 323.719 492.905 323.504C493.23 323.288 493.477 322.978 493.646 322.574C493.815 322.17 493.9 321.686 493.9 321.122C493.9 320.572 493.817 320.086 493.651 319.665C493.485 319.245 493.24 318.915 492.915 318.676C492.59 318.437 492.189 318.318 491.712 318.318C491.215 318.318 490.801 318.444 490.469 318.696C490.141 318.948 489.894 319.286 489.729 319.71C489.566 320.134 489.485 320.605 489.485 321.122C489.485 321.652 489.568 322.121 489.733 322.529C489.903 322.933 490.151 323.252 490.479 323.484C490.811 323.712 491.222 323.827 491.712 323.827Z" fill="#ADADAD"/>
<path d="M536.801 317.364C536.741 316.86 536.5 316.469 536.075 316.19C535.651 315.912 535.131 315.773 534.514 315.773C534.063 315.773 533.669 315.846 533.331 315.991C532.996 316.137 532.734 316.338 532.545 316.593C532.36 316.848 532.267 317.138 532.267 317.463C532.267 317.735 532.332 317.969 532.461 318.164C532.594 318.356 532.763 318.517 532.968 318.646C533.174 318.772 533.389 318.877 533.614 318.96C533.84 319.039 534.047 319.104 534.236 319.153L535.27 319.432C535.535 319.501 535.83 319.598 536.155 319.72C536.483 319.843 536.796 320.01 537.094 320.222C537.396 320.431 537.645 320.7 537.84 321.028C538.036 321.356 538.134 321.759 538.134 322.236C538.134 322.786 537.989 323.283 537.701 323.727C537.416 324.171 536.998 324.524 536.448 324.786C535.901 325.048 535.237 325.179 534.455 325.179C533.725 325.179 533.094 325.061 532.56 324.826C532.03 324.591 531.612 324.263 531.308 323.842C531.006 323.421 530.835 322.932 530.795 322.375H532.068C532.101 322.759 532.231 323.078 532.456 323.33C532.685 323.578 532.973 323.764 533.321 323.886C533.672 324.006 534.05 324.065 534.455 324.065C534.925 324.065 535.348 323.989 535.722 323.837C536.097 323.681 536.393 323.465 536.612 323.19C536.831 322.912 536.94 322.587 536.94 322.216C536.94 321.878 536.846 321.603 536.657 321.391C536.468 321.179 536.219 321.006 535.911 320.874C535.603 320.741 535.27 320.625 534.912 320.526L533.659 320.168C532.864 319.939 532.234 319.612 531.77 319.188C531.306 318.764 531.074 318.209 531.074 317.523C531.074 316.953 531.228 316.455 531.536 316.031C531.848 315.604 532.265 315.272 532.789 315.037C533.316 314.798 533.904 314.679 534.554 314.679C535.21 314.679 535.794 314.797 536.304 315.032C536.814 315.264 537.219 315.582 537.517 315.987C537.819 316.391 537.978 316.85 537.994 317.364H536.801ZM543.203 325.159C542.468 325.159 541.833 324.997 541.299 324.672C540.769 324.344 540.36 323.886 540.071 323.3C539.786 322.71 539.644 322.024 539.644 321.241C539.644 320.459 539.786 319.77 540.071 319.173C540.36 318.573 540.761 318.106 541.274 317.771C541.791 317.433 542.395 317.264 543.084 317.264C543.482 317.264 543.874 317.33 544.262 317.463C544.65 317.596 545.003 317.811 545.321 318.109C545.639 318.404 545.893 318.795 546.082 319.283C546.271 319.77 546.365 320.37 546.365 321.082V321.58H540.479V320.565H545.172C545.172 320.134 545.086 319.75 544.914 319.412C544.744 319.074 544.503 318.807 544.188 318.612C543.876 318.416 543.508 318.318 543.084 318.318C542.617 318.318 542.212 318.434 541.871 318.666C541.533 318.895 541.273 319.193 541.09 319.561C540.908 319.929 540.817 320.323 540.817 320.744V321.42C540.817 321.997 540.916 322.486 541.115 322.887C541.317 323.285 541.597 323.588 541.955 323.797C542.313 324.002 542.729 324.105 543.203 324.105C543.512 324.105 543.79 324.062 544.039 323.976C544.29 323.886 544.508 323.754 544.69 323.578C544.872 323.399 545.013 323.177 545.112 322.912L546.246 323.23C546.127 323.615 545.926 323.953 545.644 324.244C545.363 324.533 545.015 324.758 544.6 324.92C544.186 325.08 543.72 325.159 543.203 325.159ZM548.15 327.864V317.364H549.284V318.577H549.423C549.509 318.444 549.628 318.275 549.781 318.07C549.936 317.861 550.159 317.675 550.447 317.513C550.739 317.347 551.133 317.264 551.63 317.264C552.273 317.264 552.84 317.425 553.33 317.746C553.821 318.068 554.204 318.524 554.479 319.114C554.754 319.704 554.892 320.4 554.892 321.202C554.892 322.01 554.754 322.711 554.479 323.305C554.204 323.895 553.823 324.352 553.335 324.677C552.848 324.998 552.286 325.159 551.65 325.159C551.16 325.159 550.767 325.078 550.472 324.915C550.177 324.75 549.95 324.562 549.791 324.354C549.632 324.142 549.509 323.966 549.423 323.827H549.323V327.864H548.15ZM549.303 321.182C549.303 321.759 549.388 322.267 549.557 322.708C549.726 323.146 549.973 323.489 550.298 323.737C550.623 323.982 551.02 324.105 551.491 324.105C551.981 324.105 552.391 323.976 552.719 323.717C553.05 323.455 553.299 323.104 553.465 322.663C553.634 322.219 553.718 321.725 553.718 321.182C553.718 320.645 553.635 320.161 553.47 319.73C553.307 319.296 553.06 318.953 552.729 318.701C552.401 318.446 551.988 318.318 551.491 318.318C551.014 318.318 550.613 318.439 550.288 318.681C549.963 318.92 549.718 319.254 549.552 319.685C549.386 320.113 549.303 320.612 549.303 321.182Z" fill="#ADADAD"/>
<path d="M599.824 319.909C599.824 320.983 599.63 321.911 599.242 322.693C598.854 323.475 598.322 324.079 597.646 324.503C596.97 324.927 596.198 325.139 595.33 325.139C594.461 325.139 593.689 324.927 593.013 324.503C592.337 324.079 591.805 323.475 591.417 322.693C591.029 321.911 590.835 320.983 590.835 319.909C590.835 318.835 591.029 317.907 591.417 317.125C591.805 316.343 592.337 315.74 593.013 315.315C593.689 314.891 594.461 314.679 595.33 314.679C596.198 314.679 596.97 314.891 597.646 315.315C598.322 315.74 598.854 316.343 599.242 317.125C599.63 317.907 599.824 318.835 599.824 319.909ZM598.631 319.909C598.631 319.027 598.483 318.283 598.188 317.677C597.897 317.07 597.5 316.611 597 316.3C596.503 315.988 595.946 315.832 595.33 315.832C594.713 315.832 594.155 315.988 593.654 316.3C593.157 316.611 592.761 317.07 592.466 317.677C592.174 318.283 592.028 319.027 592.028 319.909C592.028 320.791 592.174 321.535 592.466 322.141C592.761 322.748 593.157 323.207 593.654 323.518C594.155 323.83 594.713 323.986 595.33 323.986C595.946 323.986 596.503 323.83 597 323.518C597.5 323.207 597.897 322.748 598.188 322.141C598.483 321.535 598.631 320.791 598.631 319.909ZM604.84 325.159C604.124 325.159 603.508 324.99 602.991 324.652C602.474 324.314 602.076 323.848 601.798 323.255C601.519 322.662 601.38 321.984 601.38 321.222C601.38 320.446 601.522 319.762 601.808 319.168C602.096 318.572 602.497 318.106 603.011 317.771C603.528 317.433 604.131 317.264 604.82 317.264C605.357 317.264 605.841 317.364 606.272 317.562C606.703 317.761 607.056 318.04 607.331 318.398C607.606 318.756 607.777 319.173 607.843 319.651H606.67C606.58 319.303 606.381 318.994 606.073 318.726C605.768 318.454 605.357 318.318 604.84 318.318C604.383 318.318 603.982 318.437 603.637 318.676C603.296 318.911 603.029 319.245 602.837 319.675C602.648 320.103 602.553 320.605 602.553 321.182C602.553 321.772 602.646 322.286 602.832 322.723C603.021 323.161 603.286 323.5 603.627 323.742C603.972 323.984 604.376 324.105 604.84 324.105C605.145 324.105 605.422 324.052 605.67 323.946C605.919 323.84 606.129 323.688 606.302 323.489C606.474 323.29 606.597 323.051 606.67 322.773H607.843C607.777 323.223 607.613 323.629 607.351 323.991C607.092 324.349 606.749 324.634 606.322 324.846C605.897 325.055 605.404 325.159 604.84 325.159ZM612.879 317.364V318.358H608.922V317.364H612.879ZM610.075 315.534H611.249V322.812C611.249 323.144 611.297 323.393 611.393 323.558C611.492 323.721 611.618 323.83 611.771 323.886C611.926 323.939 612.09 323.966 612.263 323.966C612.392 323.966 612.498 323.959 612.581 323.946C612.664 323.929 612.73 323.916 612.78 323.906L613.018 324.96C612.939 324.99 612.828 325.02 612.685 325.05C612.543 325.083 612.362 325.099 612.143 325.099C611.812 325.099 611.487 325.028 611.169 324.886C610.854 324.743 610.592 324.526 610.384 324.234C610.178 323.943 610.075 323.575 610.075 323.131V315.534Z" fill="#ADADAD"/>
<path d="M649.307 314.818V325H648.114L642.565 317.006H642.466V325H641.233V314.818H642.426L647.994 322.832H648.094V314.818H649.307ZM654.717 325.159C654.028 325.159 653.423 324.995 652.903 324.667C652.385 324.339 651.981 323.88 651.689 323.29C651.401 322.7 651.257 322.01 651.257 321.222C651.257 320.426 651.401 319.732 651.689 319.138C651.981 318.545 652.385 318.085 652.903 317.756C653.423 317.428 654.028 317.264 654.717 317.264C655.407 317.264 656.01 317.428 656.527 317.756C657.047 318.085 657.452 318.545 657.74 319.138C658.032 319.732 658.177 320.426 658.177 321.222C658.177 322.01 658.032 322.7 657.74 323.29C657.452 323.88 657.047 324.339 656.527 324.667C656.01 324.995 655.407 325.159 654.717 325.159ZM654.717 324.105C655.241 324.105 655.672 323.971 656.01 323.702C656.348 323.434 656.598 323.081 656.76 322.643C656.923 322.206 657.004 321.732 657.004 321.222C657.004 320.711 656.923 320.236 656.76 319.795C656.598 319.354 656.348 318.998 656.01 318.726C655.672 318.454 655.241 318.318 654.717 318.318C654.193 318.318 653.763 318.454 653.425 318.726C653.086 318.998 652.836 319.354 652.674 319.795C652.511 320.236 652.43 320.711 652.43 321.222C652.43 321.732 652.511 322.206 652.674 322.643C652.836 323.081 653.086 323.434 653.425 323.702C653.763 323.971 654.193 324.105 654.717 324.105ZM665.939 317.364L663.115 325H661.922L659.098 317.364H660.371L662.479 323.449H662.559L664.667 317.364H665.939Z" fill="#ADADAD"/>
<path d="M694.375 325H691.233V314.818H694.514C695.502 314.818 696.347 315.022 697.05 315.43C697.752 315.834 698.291 316.416 698.665 317.175C699.04 317.93 699.227 318.835 699.227 319.889C699.227 320.95 699.038 321.863 698.661 322.629C698.283 323.391 697.732 323.978 697.01 324.388C696.287 324.796 695.409 325 694.375 325ZM692.466 323.906H694.295C695.137 323.906 695.835 323.744 696.388 323.419C696.942 323.094 697.355 322.632 697.626 322.032C697.898 321.432 698.034 320.718 698.034 319.889C698.034 319.067 697.9 318.36 697.631 317.766C697.363 317.17 696.962 316.712 696.428 316.394C695.895 316.073 695.23 315.912 694.435 315.912H692.466V323.906ZM704.338 325.159C703.602 325.159 702.968 324.997 702.434 324.672C701.904 324.344 701.494 323.886 701.206 323.3C700.921 322.71 700.778 322.024 700.778 321.241C700.778 320.459 700.921 319.77 701.206 319.173C701.494 318.573 701.895 318.106 702.409 317.771C702.926 317.433 703.529 317.264 704.219 317.264C704.616 317.264 705.009 317.33 705.397 317.463C705.785 317.596 706.138 317.811 706.456 318.109C706.774 318.404 707.028 318.795 707.217 319.283C707.406 319.77 707.5 320.37 707.5 321.082V321.58H701.614V320.565H706.307C706.307 320.134 706.221 319.75 706.048 319.412C705.879 319.074 705.637 318.807 705.322 318.612C705.011 318.416 704.643 318.318 704.219 318.318C703.751 318.318 703.347 318.434 703.006 318.666C702.668 318.895 702.407 319.193 702.225 319.561C702.043 319.929 701.952 320.323 701.952 320.744V321.42C701.952 321.997 702.051 322.486 702.25 322.887C702.452 323.285 702.732 323.588 703.09 323.797C703.448 324.002 703.864 324.105 704.338 324.105C704.646 324.105 704.925 324.062 705.173 323.976C705.425 323.886 705.642 323.754 705.825 323.578C706.007 323.399 706.148 323.177 706.247 322.912L707.381 323.23C707.261 323.615 707.061 323.953 706.779 324.244C706.497 324.533 706.149 324.758 705.735 324.92C705.321 325.08 704.855 325.159 704.338 325.159ZM712.387 325.159C711.671 325.159 711.055 324.99 710.538 324.652C710.021 324.314 709.623 323.848 709.344 323.255C709.066 322.662 708.927 321.984 708.927 321.222C708.927 320.446 709.069 319.762 709.354 319.168C709.643 318.572 710.044 318.106 710.558 317.771C711.075 317.433 711.678 317.264 712.367 317.264C712.904 317.264 713.388 317.364 713.819 317.562C714.25 317.761 714.603 318.04 714.878 318.398C715.153 318.756 715.324 319.173 715.39 319.651H714.217C714.127 319.303 713.928 318.994 713.62 318.726C713.315 318.454 712.904 318.318 712.387 318.318C711.93 318.318 711.529 318.437 711.184 318.676C710.843 318.911 710.576 319.245 710.384 319.675C710.195 320.103 710.1 320.605 710.1 321.182C710.1 321.772 710.193 322.286 710.379 322.723C710.567 323.161 710.833 323.5 711.174 323.742C711.519 323.984 711.923 324.105 712.387 324.105C712.692 324.105 712.969 324.052 713.217 323.946C713.466 323.84 713.676 323.688 713.849 323.489C714.021 323.29 714.144 323.051 714.217 322.773H715.39C715.324 323.223 715.16 323.629 714.898 323.991C714.639 324.349 714.296 324.634 713.869 324.846C713.444 325.055 712.951 325.159 712.387 325.159Z" fill="#ADADAD"/>
<path d="M17.4084 25.7464C17.3686 25.3454 17.1979 25.0339 16.8963 24.8118C16.5947 24.5897 16.1854 24.4787 15.6683 24.4787C15.317 24.4787 15.0204 24.5284 14.7784 24.6278C14.5365 24.724 14.3509 24.8582 14.2216 25.0305C14.0956 25.2029 14.0327 25.3984 14.0327 25.6172C14.026 25.7995 14.0642 25.9586 14.147 26.0945C14.2332 26.2304 14.3509 26.348 14.5 26.4474C14.6491 26.5436 14.8215 26.6281 15.017 26.701C15.2126 26.7706 15.4214 26.8303 15.6435 26.88L16.5582 27.0987C17.0024 27.1982 17.41 27.3307 17.7812 27.4964C18.1525 27.6622 18.474 27.866 18.7457 28.108C19.0175 28.3499 19.228 28.6349 19.3771 28.9631C19.5296 29.2912 19.6075 29.6674 19.6108 30.0916C19.6075 30.7147 19.4484 31.255 19.1335 31.7124C18.822 32.1664 18.3712 32.5194 17.7812 32.7713C17.1946 33.0199 16.487 33.1442 15.6584 33.1442C14.8364 33.1442 14.1205 33.0182 13.5107 32.7663C12.9041 32.5144 12.4302 32.1416 12.0888 31.6477C11.7507 31.1506 11.5734 30.5357 11.5568 29.8033H13.6399C13.6631 30.1446 13.7609 30.4297 13.9332 30.6584C14.1089 30.8838 14.3426 31.0545 14.6342 31.1705C14.9292 31.2831 15.2623 31.3395 15.6335 31.3395C15.9981 31.3395 16.3146 31.2865 16.5831 31.1804C16.8549 31.0743 17.0653 30.9268 17.2145 30.7379C17.3636 30.549 17.4382 30.3319 17.4382 30.0866C17.4382 29.858 17.3703 29.6657 17.2344 29.5099C17.1018 29.3542 16.9063 29.2216 16.6477 29.1122C16.3925 29.0028 16.0793 28.9034 15.7081 28.8139L14.5994 28.5355C13.741 28.3267 13.0632 28.0002 12.5661 27.5561C12.0689 27.112 11.822 26.5137 11.8253 25.7614C11.822 25.1449 11.986 24.6063 12.3175 24.1456C12.6522 23.6849 13.1113 23.3253 13.6946 23.0668C14.2779 22.8082 14.9408 22.679 15.6832 22.679C16.4389 22.679 17.0985 22.8082 17.6619 23.0668C18.2287 23.3253 18.6695 23.6849 18.9844 24.1456C19.2992 24.6063 19.4616 25.1399 19.4716 25.7464H17.4084ZM25.0808 25.3636V26.9545H20.4821V25.3636H25.0808ZM21.5261 23.5341H23.644V30.6534C23.644 30.849 23.6738 31.0014 23.7335 31.1108C23.7931 31.2169 23.876 31.2914 23.9821 31.3345C24.0914 31.3776 24.2174 31.3991 24.3599 31.3991C24.4593 31.3991 24.5588 31.3909 24.6582 31.3743C24.7576 31.3544 24.8339 31.3395 24.8869 31.3295L25.22 32.9055C25.1139 32.9387 24.9648 32.9768 24.7725 33.0199C24.5803 33.0663 24.3467 33.0945 24.0716 33.1044C23.5611 33.1243 23.1137 33.0563 22.7292 32.9006C22.3481 32.7448 22.0514 32.5028 21.8393 32.1747C21.6272 31.8466 21.5228 31.4323 21.5261 30.9318V23.5341ZM31.3574 29.7486V25.3636H33.4753V33H31.4419V31.6129H31.3624C31.19 32.0604 30.9034 32.42 30.5023 32.6918C30.1046 32.9635 29.619 33.0994 29.0456 33.0994C28.5352 33.0994 28.0861 32.9834 27.6983 32.7514C27.3105 32.5194 27.0073 32.1896 26.7885 31.7621C26.5731 31.3345 26.4637 30.8224 26.4604 30.2259V25.3636H28.5783V29.848C28.5816 30.2988 28.7026 30.6551 28.9412 30.9169C29.1799 31.1787 29.4997 31.3097 29.9007 31.3097C30.156 31.3097 30.3946 31.2517 30.6167 31.1357C30.8387 31.0163 31.0177 30.8407 31.1536 30.6087C31.2928 30.3767 31.3607 30.09 31.3574 29.7486ZM37.9833 33.1243C37.4033 33.1243 36.878 32.9751 36.4073 32.6768C35.94 32.3752 35.5688 31.9328 35.2937 31.3494C35.0219 30.7628 34.886 30.0436 34.886 29.1918C34.886 28.3168 35.0269 27.5893 35.3086 27.0092C35.5903 26.4259 35.9648 25.9901 36.4322 25.7017C36.9028 25.41 37.4182 25.2642 37.9783 25.2642C38.4059 25.2642 38.7622 25.3371 39.0472 25.483C39.3356 25.6255 39.5676 25.8045 39.7433 26.0199C39.9222 26.232 40.0581 26.4408 40.1509 26.6463H40.2156V22.8182H42.3285V33H40.2404V31.777H40.1509C40.0515 31.9891 39.9106 32.1996 39.7283 32.4084C39.5494 32.6139 39.3157 32.7846 39.0273 32.9205C38.7423 33.0563 38.3943 33.1243 37.9833 33.1243ZM38.6545 31.4389C38.9959 31.4389 39.2842 31.3461 39.5195 31.1605C39.7582 30.9716 39.9405 30.7081 40.0664 30.37C40.1957 30.032 40.2603 29.6359 40.2603 29.1818C40.2603 28.7277 40.1973 28.3333 40.0714 27.9986C39.9454 27.6638 39.7631 27.4053 39.5245 27.223C39.2859 27.0407 38.9959 26.9496 38.6545 26.9496C38.3065 26.9496 38.0131 27.044 37.7745 27.233C37.5359 27.4219 37.3552 27.6837 37.2326 28.0185C37.11 28.3532 37.0487 28.741 37.0487 29.1818C37.0487 29.6259 37.11 30.0187 37.2326 30.3601C37.3585 30.6982 37.5392 30.9633 37.7745 31.1555C38.0131 31.3445 38.3065 31.4389 38.6545 31.4389ZM47.5499 33.1491C46.7644 33.1491 46.0882 32.9901 45.5215 32.6719C44.958 32.3504 44.5239 31.8963 44.2189 31.3097C43.914 30.7197 43.7615 30.022 43.7615 29.2166C43.7615 28.4311 43.914 27.7417 44.2189 27.1484C44.5239 26.5552 44.9531 26.0928 45.5066 25.7614C46.0634 25.4299 46.7163 25.2642 47.4654 25.2642C47.9692 25.2642 48.4382 25.3454 48.8723 25.5078C49.3098 25.6669 49.691 25.9072 50.0158 26.2287C50.3439 26.5502 50.5991 26.9545 50.7814 27.4418C50.9637 27.9257 51.0549 28.4924 51.0549 29.142V29.7237H44.6067V28.4112H49.0613C49.0613 28.1063 48.995 27.8362 48.8624 27.6009C48.7298 27.3655 48.5459 27.1816 48.3105 27.049C48.0785 26.9131 47.8084 26.8452 47.5002 26.8452C47.1787 26.8452 46.8936 26.9197 46.6451 27.0689C46.3998 27.2147 46.2076 27.4119 46.0684 27.6605C45.9292 27.9058 45.8579 28.1792 45.8546 28.4808V29.7287C45.8546 30.1065 45.9242 30.433 46.0634 30.7081C46.2059 30.9832 46.4064 31.1953 46.665 31.3445C46.9235 31.4936 47.2301 31.5682 47.5847 31.5682C47.82 31.5682 48.0355 31.535 48.231 31.4688C48.4266 31.4025 48.5939 31.303 48.7331 31.1705C48.8723 31.0379 48.9784 30.8755 49.0513 30.6832L51.0101 30.8125C50.9107 31.2831 50.7069 31.6941 50.3986 32.0455C50.0937 32.3935 49.6993 32.6652 49.2154 32.8608C48.7348 33.053 48.1796 33.1491 47.5499 33.1491ZM54.5549 28.5852V33H52.437V25.3636H54.4554V26.7109H54.5449C54.714 26.2668 54.9973 25.9155 55.3951 25.657C55.7928 25.3951 56.275 25.2642 56.8418 25.2642C57.3721 25.2642 57.8345 25.3802 58.2289 25.6122C58.6233 25.8442 58.9299 26.1757 59.1486 26.6065C59.3674 27.0341 59.4767 27.5445 59.4767 28.1378V33H57.3588V28.5156C57.3622 28.0483 57.2428 27.6837 57.0009 27.4219C56.7589 27.1567 56.4258 27.0241 56.0016 27.0241C55.7166 27.0241 55.4647 27.0855 55.2459 27.2081C55.0305 27.3307 54.8614 27.5097 54.7388 27.745C54.6195 27.977 54.5582 28.2571 54.5549 28.5852ZM65.2077 25.3636V26.9545H60.609V25.3636H65.2077ZM61.6531 23.5341H63.771V30.6534C63.771 30.849 63.8008 31.0014 63.8604 31.1108C63.9201 31.2169 64.003 31.2914 64.109 31.3345C64.2184 31.3776 64.3443 31.3991 64.4869 31.3991C64.5863 31.3991 64.6857 31.3909 64.7852 31.3743C64.8846 31.3544 64.9608 31.3395 65.0138 31.3295L65.3469 32.9055C65.2409 32.9387 65.0917 32.9768 64.8995 33.0199C64.7073 33.0663 64.4736 33.0945 64.1985 33.1044C63.6881 33.1243 63.2406 33.0563 62.8562 32.9006C62.475 32.7448 62.1784 32.5028 61.9663 32.1747C61.7541 31.8466 61.6497 31.4323 61.6531 30.9318V23.5341ZM72.8453 27.5412L70.9064 27.6605C70.8733 27.4948 70.802 27.3456 70.6926 27.2131C70.5833 27.0772 70.4391 26.9695 70.2601 26.8899C70.0845 26.8071 69.874 26.7656 69.6287 26.7656C69.3006 26.7656 69.0239 26.8352 68.7985 26.9744C68.5731 27.1103 68.4604 27.2926 68.4604 27.5213C68.4604 27.7036 68.5333 27.8577 68.6792 27.9837C68.825 28.1096 69.0752 28.2107 69.4299 28.2869L70.812 28.5653C71.5544 28.7178 72.1079 28.9631 72.4725 29.3011C72.8371 29.6392 73.0194 30.0833 73.0194 30.6335C73.0194 31.134 72.8719 31.5732 72.5769 31.951C72.2852 32.3288 71.8842 32.6238 71.3738 32.8359C70.8667 33.0447 70.2817 33.1491 69.6188 33.1491C68.6079 33.1491 67.8025 32.9387 67.2026 32.5178C66.606 32.0935 66.2563 31.5168 66.1536 30.7876L68.2367 30.6783C68.2997 30.9865 68.4521 31.2218 68.6941 31.3842C68.936 31.5433 69.2459 31.6229 69.6238 31.6229C69.995 31.6229 70.2933 31.5516 70.5186 31.4091C70.7473 31.2633 70.8633 31.076 70.8667 30.8473C70.8633 30.6551 70.7821 30.4976 70.623 30.375C70.464 30.2491 70.2187 30.1529 69.8873 30.0866L68.5648 29.8232C67.8191 29.674 67.2639 29.4155 66.8993 29.0476C66.5381 28.6797 66.3574 28.2107 66.3574 27.6406C66.3574 27.1501 66.49 26.7275 66.7551 26.3729C67.0236 26.0182 67.3998 25.7448 67.8837 25.5526C68.3709 25.3603 68.941 25.2642 69.5939 25.2642C70.5584 25.2642 71.3174 25.468 71.8709 25.8757C72.4277 26.2834 72.7525 26.8385 72.8453 27.5412Z" fill="#350055"/>
<line x1="50" y1="298.5" x2="706.007" y2="298.5" stroke="#EEEEEE" stroke-dasharray="7 7"/>
<line x1="50" y1="268.5" x2="706.007" y2="268.5" stroke="#EEEEEE" stroke-dasharray="7 7"/>
<line x1="50" y1="238.5" x2="706.007" y2="238.5" stroke="#EEEEEE" stroke-dasharray="7 7"/>
<line x1="50" y1="208.5" x2="706.007" y2="208.5" stroke="#EEEEEE" stroke-dasharray="7 7"/>
<line x1="50" y1="178.5" x2="706.007" y2="178.5" stroke="#EEEEEE" stroke-dasharray="7 7"/>
<line x1="50" y1="148.5" x2="706.007" y2="148.5" stroke="#EEEEEE" stroke-dasharray="7 7"/>
<line x1="50" y1="118.5" x2="706.007" y2="118.5" stroke="#EEEEEE" stroke-dasharray="7 7"/>
<line x1="50" y1="88.5" x2="706.007" y2="88.5" stroke="#EEEEEE" stroke-dasharray="7 7"/>
<g filter="url(#filter0_d_3_180)">
<path d="M48 296L95 261.5L105.5 239.5L125.5 231.5H153.5L174.5 217.5H258.5L271 205H299.5L348 182H394L449 165H486L533.5 142H573.5" stroke="#4100CC" stroke-width="3"/>
</g>
<circle cx="494.5" cy="28.5" r="3.5" fill="#4100CC"/>
<path d="M515.83 26.4545C515.778 26.0227 515.571 25.6875 515.207 25.4489C514.844 25.2102 514.398 25.0909 513.869 25.0909C513.483 25.0909 513.145 25.1534 512.855 25.2784C512.568 25.4034 512.344 25.5753 512.182 25.794C512.023 26.0128 511.943 26.2614 511.943 26.5398C511.943 26.7727 511.999 26.973 512.109 27.1406C512.223 27.3054 512.368 27.4432 512.544 27.554C512.72 27.6619 512.905 27.7514 513.098 27.8224C513.291 27.8906 513.469 27.946 513.631 27.9886L514.517 28.2273C514.744 28.2869 514.997 28.3693 515.276 28.4744C515.557 28.5795 515.825 28.723 516.081 28.9048C516.339 29.0838 516.553 29.3139 516.72 29.5952C516.888 29.8764 516.972 30.2216 516.972 30.6307C516.972 31.1023 516.848 31.5284 516.601 31.9091C516.357 32.2898 515.999 32.5923 515.527 32.8168C515.058 33.0412 514.489 33.1534 513.818 33.1534C513.193 33.1534 512.652 33.0526 512.195 32.8509C511.74 32.6491 511.382 32.3679 511.121 32.0071C510.862 31.6463 510.716 31.2273 510.682 30.75H511.773C511.801 31.0795 511.912 31.3523 512.105 31.5682C512.301 31.7812 512.548 31.9403 512.847 32.0455C513.148 32.1477 513.472 32.1989 513.818 32.1989C514.222 32.1989 514.584 32.1335 514.905 32.0028C515.226 31.8693 515.48 31.6847 515.668 31.4489C515.855 31.2102 515.949 30.9318 515.949 30.6136C515.949 30.3239 515.868 30.0881 515.706 29.9062C515.544 29.7244 515.331 29.5767 515.067 29.4631C514.803 29.3494 514.517 29.25 514.21 29.1648L513.136 28.858C512.455 28.6619 511.915 28.3821 511.517 28.0185C511.119 27.6548 510.92 27.179 510.92 26.5909C510.92 26.1023 511.053 25.6761 511.317 25.3125C511.584 24.946 511.942 24.6619 512.391 24.4602C512.842 24.2557 513.347 24.1534 513.903 24.1534C514.466 24.1534 514.966 24.2543 515.403 24.456C515.841 24.6548 516.188 24.9276 516.443 25.2741C516.702 25.6207 516.838 26.0142 516.852 26.4545H515.83ZM521.419 26.4545V27.3068H518.027V26.4545H521.419ZM519.016 24.8864H520.022V31.125C520.022 31.4091 520.063 31.6222 520.145 31.7642C520.23 31.9034 520.338 31.9972 520.469 32.0455C520.603 32.0909 520.743 32.1136 520.891 32.1136C521.002 32.1136 521.093 32.108 521.164 32.0966C521.235 32.0824 521.292 32.071 521.334 32.0625L521.539 32.9659C521.471 32.9915 521.375 33.017 521.253 33.0426C521.131 33.071 520.976 33.0852 520.789 33.0852C520.505 33.0852 520.226 33.0241 519.953 32.902C519.684 32.7798 519.459 32.5938 519.28 32.3438C519.104 32.0938 519.016 31.7784 519.016 31.3977V24.8864ZM527.057 30.3239V26.4545H528.063V33H527.057V31.892H526.989C526.836 32.2244 526.597 32.5071 526.273 32.7401C525.949 32.9702 525.54 33.0852 525.046 33.0852C524.637 33.0852 524.273 32.9957 523.955 32.8168C523.637 32.6349 523.387 32.3622 523.205 31.9986C523.023 31.6321 522.932 31.1705 522.932 30.6136V26.4545H523.938V30.5455C523.938 31.0227 524.071 31.4034 524.338 31.6875C524.608 31.9716 524.952 32.1136 525.37 32.1136C525.62 32.1136 525.874 32.0497 526.132 31.9219C526.394 31.794 526.613 31.598 526.789 31.3338C526.968 31.0696 527.057 30.733 527.057 30.3239ZM532.376 33.1364C531.831 33.1364 531.349 32.9986 530.932 32.723C530.514 32.4446 530.188 32.0526 529.952 31.5469C529.716 31.0384 529.598 30.4375 529.598 29.7443C529.598 29.0568 529.716 28.4602 529.952 27.9545C530.188 27.4489 530.516 27.0582 530.936 26.7827C531.357 26.5071 531.842 26.3693 532.393 26.3693C532.82 26.3693 533.156 26.4403 533.403 26.5824C533.653 26.7216 533.844 26.8807 533.974 27.0597C534.108 27.2358 534.212 27.3807 534.286 27.4943H534.371V24.2727H535.376V33H534.405V31.9943H534.286C534.212 32.1136 534.107 32.2642 533.97 32.446C533.834 32.625 533.639 32.7855 533.386 32.9276C533.134 33.0668 532.797 33.1364 532.376 33.1364ZM532.513 32.233C532.916 32.233 533.257 32.1278 533.536 31.9176C533.814 31.7045 534.026 31.4105 534.17 31.0355C534.315 30.6577 534.388 30.2216 534.388 29.7273C534.388 29.2386 534.317 28.8111 534.175 28.4446C534.033 28.0753 533.822 27.7884 533.544 27.5838C533.266 27.3764 532.922 27.2727 532.513 27.2727C532.087 27.2727 531.732 27.3821 531.447 27.6009C531.166 27.8168 530.955 28.1108 530.812 28.483C530.673 28.8523 530.604 29.267 530.604 29.7273C530.604 30.1932 530.675 30.6165 530.817 30.9972C530.962 31.375 531.175 31.6761 531.456 31.9006C531.74 32.1222 532.092 32.233 532.513 32.233ZM540.102 33.1364C539.472 33.1364 538.928 32.9972 538.47 32.7188C538.016 32.4375 537.665 32.0455 537.418 31.5426C537.173 31.0369 537.051 30.4489 537.051 29.7784C537.051 29.108 537.173 28.517 537.418 28.0057C537.665 27.4915 538.009 27.0909 538.449 26.804C538.892 26.5142 539.409 26.3693 540 26.3693C540.341 26.3693 540.678 26.4261 541.01 26.5398C541.342 26.6534 541.645 26.8381 541.918 27.0938C542.19 27.3466 542.408 27.6818 542.57 28.0994C542.732 28.517 542.812 29.0312 542.812 29.642V30.0682H537.767V29.1989H541.79C541.79 28.8295 541.716 28.5 541.568 28.2102C541.423 27.9205 541.216 27.6918 540.946 27.5241C540.679 27.3565 540.364 27.2727 540 27.2727C539.599 27.2727 539.253 27.3722 538.96 27.571C538.67 27.767 538.447 28.0227 538.291 28.3381C538.135 28.6534 538.057 28.9915 538.057 29.3523V29.9318C538.057 30.4261 538.142 30.8452 538.312 31.1889C538.486 31.5298 538.726 31.7898 539.033 31.9688C539.339 32.1449 539.696 32.233 540.102 32.233C540.366 32.233 540.605 32.196 540.818 32.1222C541.034 32.0455 541.22 31.9318 541.376 31.7812C541.533 31.6278 541.653 31.4375 541.739 31.2102L542.71 31.483C542.608 31.8125 542.436 32.1023 542.195 32.3523C541.953 32.5994 541.655 32.7926 541.3 32.9318C540.945 33.0682 540.545 33.1364 540.102 33.1364ZM545.348 29.0625V33H544.342V26.4545H545.314V27.4773H545.399C545.553 27.1449 545.786 26.8778 546.098 26.6761C546.411 26.4716 546.814 26.3693 547.308 26.3693C547.751 26.3693 548.139 26.4602 548.472 26.642C548.804 26.821 549.063 27.0938 549.247 27.4602C549.432 27.8239 549.524 28.2841 549.524 28.8409V33H548.518V28.9091C548.518 28.3949 548.385 27.9943 548.118 27.7074C547.851 27.4176 547.484 27.2727 547.018 27.2727C546.697 27.2727 546.411 27.3423 546.158 27.4815C545.908 27.6207 545.71 27.8239 545.565 28.0909C545.42 28.358 545.348 28.6818 545.348 29.0625ZM554.208 26.4545V27.3068H550.816V26.4545H554.208ZM551.805 24.8864H552.811V31.125C552.811 31.4091 552.852 31.6222 552.934 31.7642C553.02 31.9034 553.127 31.9972 553.258 32.0455C553.392 32.0909 553.532 32.1136 553.68 32.1136C553.791 32.1136 553.882 32.108 553.953 32.0966C554.024 32.0824 554.081 32.071 554.123 32.0625L554.328 32.9659C554.26 32.9915 554.164 33.017 554.042 33.0426C553.92 33.071 553.765 33.0852 553.578 33.0852C553.294 33.0852 553.015 33.0241 552.743 32.902C552.473 32.7798 552.248 32.5938 552.069 32.3438C551.893 32.0938 551.805 31.7784 551.805 31.3977V24.8864ZM560.24 27.9205L559.337 28.1761C559.28 28.0256 559.196 27.8793 559.086 27.7372C558.978 27.5923 558.83 27.473 558.642 27.3793C558.455 27.2855 558.215 27.2386 557.922 27.2386C557.522 27.2386 557.188 27.331 556.921 27.5156C556.657 27.6974 556.525 27.929 556.525 28.2102C556.525 28.4602 556.615 28.6577 556.797 28.8026C556.979 28.9474 557.263 29.0682 557.65 29.1648L558.621 29.4034C559.206 29.5455 559.642 29.7628 559.929 30.0554C560.216 30.3452 560.36 30.7187 560.36 31.1761C560.36 31.5511 560.252 31.8864 560.036 32.1818C559.823 32.4773 559.525 32.7102 559.141 32.8807C558.757 33.0511 558.311 33.1364 557.803 33.1364C557.135 33.1364 556.583 32.9915 556.145 32.7017C555.708 32.4119 555.431 31.9886 555.314 31.4318L556.269 31.1932C556.36 31.5455 556.532 31.8097 556.784 31.9858C557.04 32.1619 557.374 32.25 557.786 32.25C558.255 32.25 558.627 32.1506 558.902 31.9517C559.181 31.75 559.32 31.5085 559.32 31.2273C559.32 31 559.24 30.8097 559.081 30.6562C558.922 30.5 558.678 30.3835 558.348 30.3068L557.257 30.0511C556.658 29.9091 556.218 29.6889 555.936 29.3906C555.658 29.0895 555.519 28.7131 555.519 28.2614C555.519 27.892 555.623 27.5653 555.83 27.2812C556.04 26.9972 556.326 26.7741 556.686 26.6122C557.05 26.4503 557.462 26.3693 557.922 26.3693C558.57 26.3693 559.078 26.5114 559.448 26.7955C559.82 27.0795 560.084 27.4545 560.24 27.9205Z" fill="#4C2460"/>
<path d="M56 243L113.5 291H157.5L164 275L172 260.5L193.5 286C227 259.5 230.3 291.4 245.5 275C260.7 258.6 261.167 252.167 270.5 243L277 221.5L297.5 199.5L317.5 151.5C390.5 180.5 372.1 243 376.5 243C380.9 243 395 142.5 451 124L495 165L527.5 218L588 260.5L610 206" stroke="#E72208" stroke-width="3"/>
<defs>
<filter id="filter0_d_3_180" x="7.1124" y="115.5" width="606.388" height="236.709" filterUnits="userSpaceOnUse" color-interpolation-filters="sRGB">
<feFlood flood-opacity="0" result="BackgroundImageFix"/>
<feColorMatrix in="SourceAlpha" type="matrix" values="0 0 0 0 0 0 0 0 0 0 0 0 0 0 0 0 0 0 127 0" result="hardAlpha"/>
<feOffset dy="15"/>
<feGaussianBlur stdDeviation="20"/>
<feComposite in2="hardAlpha" operator="out"/>
<feColorMatrix type="matrix" values="0 0 0 0 0.4422 0 0 0 0 0.195417 0 0 0 0 0.558333 0 0 0 0.83 0"/>
<feBlend mode="normal" in2="BackgroundImageFix" result="effect1_dropShadow_3_180"/>
<feBlend mode="normal" in="SourceGraphic" in2="effect1_dropShadow_3_180" result="shape"/>
</filter>
</defs>
</svg>
