<svg width="200" height="200" viewBox="0 0 200 200" fill="none" xmlns="http://www.w3.org/2000/svg">
<path d="M100 200C85.0659 200 70.3214 196.655 56.8492 190.211C43.377 183.767 31.5192 174.387 22.1465 162.76C12.7738 151.133 6.12429 137.555 2.68615 123.022C-0.75199 108.489 -0.89142 93.3706 2.2781 78.7766C5.44762 64.1827 11.8456 50.484 21.0022 38.6864C30.1589 26.8888 41.8417 17.2918 55.1927 10.6003C68.5438 3.9087 83.2241 0.29243 98.1557 0.0169941C113.087 -0.258441 127.891 2.81396 141.48 9.00858L132.589 28.5113C121.913 23.6444 110.282 21.2306 98.551 21.447C86.8198 21.6634 75.286 24.5045 64.7965 29.7619C54.3071 35.0192 45.1284 42.5592 37.9343 51.8281C30.7403 61.0971 25.7136 71.8597 23.2234 83.3256C20.7333 94.7915 20.8428 106.67 23.544 118.088C26.2452 129.506 31.4696 140.174 38.8333 149.308C46.1971 158.443 55.5133 165.812 66.098 170.875C76.6826 175.938 88.2668 178.566 100 178.566L100 200Z" fill="#E72208"/>
<path d="M100 200C122.904 200 145.114 192.137 162.917 177.727C180.72 163.316 193.036 143.231 197.807 120.829C202.577 98.4269 199.513 75.0663 189.127 54.6524C178.74 34.2386 161.661 18.0089 140.744 8.67681L132.011 28.2507C148.445 35.5826 161.863 48.3336 170.024 64.3721C178.184 80.4105 180.591 98.7641 176.843 116.364C173.095 133.965 163.419 149.745 149.432 161.067C135.445 172.389 117.995 178.566 100 178.566L100 200Z" fill="#4100CC"/>
<path d="M78.8423 105.179C77.9389 105.179 77.1335 105.013 76.4261 104.68C75.723 104.348 75.1648 103.89 74.7514 103.306C74.3381 102.722 74.1229 102.053 74.1058 101.299H76.7905C76.8203 101.806 77.0334 102.217 77.4297 102.533C77.826 102.848 78.2969 103.006 78.8423 103.006C79.277 103.006 79.6605 102.91 79.9929 102.718C80.3295 102.522 80.5916 102.251 80.7791 101.906C80.9709 101.557 81.0668 101.156 81.0668 100.705C81.0668 100.244 80.9688 99.8395 80.7727 99.4901C80.581 99.1406 80.3146 98.8679 79.9737 98.6719C79.6328 98.4759 79.2429 98.3757 78.804 98.3714C78.4205 98.3714 78.0476 98.4503 77.6854 98.608C77.3274 98.7656 77.0483 98.9808 76.848 99.2536L74.3871 98.8125L75.0071 91.9091H83.0099V94.1719H77.2891L76.9503 97.451H77.027C77.2571 97.1271 77.6044 96.8587 78.0689 96.6456C78.5334 96.4325 79.0533 96.326 79.6286 96.326C80.4169 96.326 81.12 96.5114 81.7379 96.8821C82.3558 97.2528 82.8438 97.7621 83.2017 98.4098C83.5597 99.0533 83.7365 99.7947 83.7322 100.634C83.7365 101.516 83.532 102.3 83.1186 102.987C82.7095 103.668 82.1364 104.205 81.3991 104.597C80.6662 104.985 79.8139 105.179 78.8423 105.179ZM90.6868 105.179C90.0135 105.175 89.3636 105.062 88.7372 104.84C88.1151 104.619 87.5568 104.259 87.0625 103.76C86.5682 103.261 86.1761 102.601 85.8864 101.778C85.6009 100.956 85.4581 99.946 85.4581 98.7486C85.4624 97.6491 85.5881 96.6669 85.8352 95.8018C86.0866 94.9325 86.4446 94.1953 86.9091 93.5902C87.3778 92.9851 87.9382 92.5249 88.5902 92.2095C89.2422 91.8899 89.973 91.7301 90.7827 91.7301C91.6563 91.7301 92.4276 91.9006 93.0966 92.2415C93.7656 92.5781 94.3026 93.0362 94.7074 93.6158C95.1165 94.1953 95.3636 94.8452 95.4489 95.5653H92.7195C92.6129 95.1094 92.3892 94.7514 92.0483 94.4915C91.7074 94.2315 91.2855 94.1016 90.7827 94.1016C89.9304 94.1016 89.2827 94.4723 88.8395 95.2138C88.4006 95.9553 88.1768 96.9631 88.1683 98.2372H88.2578C88.4538 97.8494 88.718 97.5192 89.0504 97.2464C89.3871 96.9695 89.7685 96.7585 90.1946 96.6136C90.625 96.4645 91.0788 96.3899 91.5561 96.3899C92.3317 96.3899 93.022 96.5732 93.6271 96.9396C94.2322 97.3018 94.7095 97.8004 95.0589 98.4354C95.4084 99.0703 95.5831 99.7969 95.5831 100.615C95.5831 101.501 95.3764 102.29 94.9631 102.98C94.554 103.67 93.9808 104.212 93.2436 104.604C92.5107 104.991 91.6584 105.183 90.6868 105.179ZM90.674 103.006C91.1001 103.006 91.4815 102.903 91.8182 102.699C92.1548 102.494 92.419 102.217 92.6108 101.868C92.8026 101.518 92.8984 101.126 92.8984 100.692C92.8984 100.257 92.8026 99.8672 92.6108 99.522C92.4233 99.1768 92.1634 98.902 91.831 98.6974C91.4986 98.4929 91.1193 98.3906 90.6932 98.3906C90.3736 98.3906 90.0774 98.4503 89.8047 98.5696C89.5362 98.6889 89.2997 98.8551 89.0952 99.0682C88.8949 99.2812 88.7372 99.5284 88.6222 99.8097C88.5071 100.087 88.4496 100.383 88.4496 100.698C88.4496 101.12 88.5455 101.506 88.7372 101.855C88.9332 102.205 89.1974 102.484 89.5298 102.692C89.8665 102.901 90.2479 103.006 90.674 103.006ZM98.6177 105.166C98.1958 105.166 97.8336 105.017 97.5311 104.719C97.2328 104.416 97.0836 104.054 97.0836 103.632C97.0836 103.214 97.2328 102.857 97.5311 102.558C97.8336 102.26 98.1958 102.111 98.6177 102.111C99.0268 102.111 99.3848 102.26 99.6916 102.558C99.9984 102.857 100.152 103.214 100.152 103.632C100.152 103.913 100.079 104.171 99.9345 104.406C99.7939 104.636 99.6085 104.821 99.3784 104.962C99.1483 105.098 98.8947 105.166 98.6177 105.166ZM106.718 105.179C105.734 105.179 104.858 105.019 104.091 104.7C103.328 104.376 102.729 103.935 102.295 103.376C101.86 102.818 101.643 102.185 101.643 101.478C101.643 100.933 101.766 100.432 102.013 99.9759C102.265 99.5156 102.606 99.1342 103.036 98.8317C103.467 98.5249 103.948 98.3288 104.481 98.2436V98.1541C103.782 98.0135 103.215 97.6747 102.781 97.1378C102.346 96.5966 102.129 95.968 102.129 95.2521C102.129 94.5746 102.327 93.9716 102.723 93.4432C103.119 92.9105 103.663 92.4929 104.353 92.1903C105.048 91.8835 105.836 91.7301 106.718 91.7301C107.6 91.7301 108.386 91.8835 109.077 92.1903C109.771 92.4972 110.317 92.9169 110.713 93.4496C111.109 93.978 111.31 94.5788 111.314 95.2521C111.31 95.9723 111.088 96.6009 110.649 97.1378C110.21 97.6747 109.648 98.0135 108.962 98.1541V98.2436C109.486 98.3288 109.961 98.5249 110.387 98.8317C110.817 99.1342 111.158 99.5156 111.41 99.9759C111.665 100.432 111.795 100.933 111.8 101.478C111.795 102.185 111.576 102.818 111.141 103.376C110.707 103.935 110.106 104.376 109.339 104.7C108.576 105.019 107.702 105.179 106.718 105.179ZM106.718 103.146C107.157 103.146 107.54 103.067 107.869 102.91C108.197 102.748 108.452 102.526 108.636 102.245C108.823 101.96 108.917 101.631 108.917 101.261C108.917 100.881 108.821 100.547 108.629 100.257C108.438 99.9631 108.178 99.733 107.849 99.5668C107.521 99.3963 107.144 99.3111 106.718 99.3111C106.296 99.3111 105.919 99.3963 105.587 99.5668C105.254 99.733 104.992 99.9631 104.8 100.257C104.613 100.547 104.519 100.881 104.519 101.261C104.519 101.631 104.611 101.96 104.794 102.245C104.977 102.526 105.235 102.748 105.567 102.91C105.9 103.067 106.283 103.146 106.718 103.146ZM106.718 97.2976C107.085 97.2976 107.411 97.223 107.696 97.0739C107.982 96.9247 108.205 96.718 108.367 96.4538C108.529 96.1896 108.61 95.8849 108.61 95.5398C108.61 95.1989 108.529 94.9006 108.367 94.6449C108.205 94.3849 107.984 94.1825 107.702 94.0376C107.421 93.8885 107.093 93.8139 106.718 93.8139C106.347 93.8139 106.019 93.8885 105.734 94.0376C105.448 94.1825 105.224 94.3849 105.062 94.6449C104.905 94.9006 104.826 95.1989 104.826 95.5398C104.826 95.8849 104.907 96.1896 105.069 96.4538C105.231 96.718 105.455 96.9247 105.74 97.0739C106.026 97.223 106.352 97.2976 106.718 97.2976ZM120.9 102.545V101.855C120.9 101.331 121.011 100.849 121.233 100.411C121.459 99.9673 121.785 99.6136 122.211 99.3494C122.641 99.081 123.165 98.9467 123.783 98.9467C124.41 98.9467 124.936 99.0788 125.362 99.343C125.792 99.6072 126.116 99.9609 126.334 100.404C126.555 100.843 126.666 101.327 126.666 101.855V102.545C126.666 103.07 126.555 103.553 126.334 103.996C126.112 104.435 125.786 104.787 125.356 105.051C124.925 105.32 124.401 105.454 123.783 105.454C123.157 105.454 122.631 105.32 122.204 105.051C121.778 104.787 121.454 104.435 121.233 103.996C121.011 103.553 120.9 103.07 120.9 102.545ZM122.76 101.855V102.545C122.76 102.848 122.833 103.134 122.978 103.402C123.127 103.67 123.395 103.805 123.783 103.805C124.171 103.805 124.435 103.673 124.576 103.408C124.721 103.144 124.793 102.857 124.793 102.545V101.855C124.793 101.544 124.725 101.254 124.589 100.986C124.452 100.717 124.184 100.583 123.783 100.583C123.4 100.583 123.133 100.717 122.984 100.986C122.835 101.254 122.76 101.544 122.76 101.855ZM114.182 95.054V94.3636C114.182 93.8352 114.295 93.3516 114.521 92.9126C114.747 92.4695 115.073 92.1158 115.499 91.8516C115.93 91.5874 116.449 91.4553 117.059 91.4553C117.689 91.4553 118.218 91.5874 118.644 91.8516C119.07 92.1158 119.394 92.4695 119.616 92.9126C119.837 93.3516 119.948 93.8352 119.948 94.3636V95.054C119.948 95.5824 119.835 96.0661 119.609 96.505C119.388 96.9439 119.062 97.2955 118.631 97.5597C118.205 97.8196 117.681 97.9496 117.059 97.9496C116.437 97.9496 115.91 97.8175 115.48 97.5533C115.054 97.2848 114.73 96.9332 114.508 96.4986C114.291 96.0597 114.182 95.5781 114.182 95.054ZM116.055 94.3636V95.054C116.055 95.3651 116.128 95.6527 116.273 95.9169C116.422 96.1811 116.684 96.3132 117.059 96.3132C117.451 96.3132 117.717 96.1811 117.858 95.9169C118.003 95.6527 118.075 95.3651 118.075 95.054V94.3636C118.075 94.0526 118.007 93.7628 117.871 93.4943C117.734 93.2259 117.464 93.0916 117.059 93.0916C116.68 93.0916 116.417 93.228 116.273 93.5007C116.128 93.7734 116.055 94.0611 116.055 94.3636ZM115.026 105L124.026 91.9091H125.701L116.701 105H115.026Z" fill="#671D8A"/>
</svg>
