<svg width="29" height="29" viewBox="0 0 29 29" fill="none" xmlns="http://www.w3.org/2000/svg">
<path d="M29 0H0V29H29V0Z" fill="#5ABCBB"/>
<path d="M21.8748 23.0788C20.882 21.1996 14.4998 20.0204 14.4998 20.0204C14.4998 20.0204 8.11779 21.1996 7.12499 23.0788C6.39139 25.6866 5.77759 29 5.77759 29H14.4998H23.2222C23.2224 29 22.808 25.4472 21.8748 23.0788Z" fill="#F1C9A5"/>
<path d="M14.4998 20.0204C14.4998 20.0204 20.882 21.1996 21.8748 23.0788C22.8078 25.4472 23.2222 29 23.2222 29H14.4998V20.0204Z" fill="#E4B692"/>
<path d="M16.2374 16.2H12.7626V22.0154H16.2374V16.2Z" fill="#F1C9A5"/>
<path d="M16.2374 16.2H14.4998V22.0154H16.2374V16.2Z" fill="#E4B692"/>
<path opacity="0.1" d="M12.7626 18.8948C13.0752 19.7918 14.3362 20.3062 15.2624 20.3062C15.5976 20.3062 15.9236 20.25 16.2374 20.1472V16.2H12.7626V18.8948Z" fill="#DDAC8C"/>
<path d="M18.9674 12.5306C18.9674 8.89819 16.9672 6.83279 14.4998 6.83279C12.0326 6.83279 10.0324 8.89819 10.0324 12.5306C10.0324 17.4162 12.0326 19.1078 14.4998 19.1078C16.9674 19.1078 18.9674 17.2126 18.9674 12.5306Z" fill="#F1C9A5"/>
<path d="M18.9674 12.5306C18.9674 8.89819 16.9672 6.83279 14.4998 6.83279C12.0326 6.83279 10.0324 8.89819 10.0324 12.5306C10.0324 17.4162 12.0326 19.1078 14.4998 19.1078C16.9674 19.1078 18.9674 17.2126 18.9674 12.5306Z" fill="#F1C9A5"/>
<path d="M9.03217 13.4062C8.89537 12.4148 9.44137 11.5426 10.2506 11.4582C11.0612 11.3738 11.8282 12.11 11.964 13.1014C12.1006 14.092 11.5534 14.9644 10.744 15.0492C9.93417 15.133 9.16797 14.3976 9.03217 13.4062Z" fill="#F1C9A5"/>
<path d="M18.9674 12.5306C18.9674 8.89819 16.9672 6.83279 14.4998 6.83279V19.1078C16.9674 19.1078 18.9674 17.2126 18.9674 12.5306Z" fill="#E4B692"/>
<path d="M21.8748 23.0788C21.2386 21.8746 18.3912 20.9586 16.4264 20.4554C16.35 21.4534 15.5174 22.24 14.4998 22.24C13.4822 22.24 12.6498 21.4534 12.5734 20.4554C10.6086 20.9586 7.76119 21.8746 7.12499 23.0788C6.39139 25.6866 5.77759 29 5.77759 29H14.4998H23.2222C23.2224 29 22.808 25.4472 21.8748 23.0788Z" fill="#102F41"/>
<path d="M10.7882 16.854C11.76 18.5044 12.7278 18.7596 12.7278 18.7596L13.021 19.7106H12.6H12.27L12.087 19.3004H11.684L11.5374 18.797L11.1382 18.9648L11.0432 18.4054H10.6766L10.5484 17.9392L10.2736 18.0698L9.99879 17.6408L9.61419 17.4358L9.79739 16.8018H9.33959L9.35799 16.1304L9.00979 16.2424L8.88159 15.6458L8.29539 15.422L8.80819 14.8998L8.55179 14.8066L8.82639 14.322L8.62499 14.2288L8.58819 13.6506L8.00219 13.5388L8.33199 13.0166L7.92879 12.3826L8.40519 12.1214L8.14879 11.4876L8.29519 10.8908L7.74579 10.4432L8.51499 10.3688V9.8094L8.73499 9.3246L8.51499 8.9144L8.91819 8.5788L8.51499 8.243L8.95459 7.7954V7.5344L9.35779 7.1988L9.17459 6.6766L9.90699 6.8258L9.94379 5.9308L10.4934 6.1172L10.6764 5.7444L11.2992 5.819C11.2992 5.819 11.1528 5.5206 11.409 5.5206C11.6654 5.5206 12.2884 5.7818 12.2884 5.7818L12.618 5.3342L13.3506 5.8564L13.6072 5.3342L14.0834 5.8936L14.5302 5.3342C14.5302 5.3342 14.5302 8.467 14.5302 10.4062C13.9512 10.3566 13.6436 10.3566 12.3738 9.8592C11.9344 10.1576 10.5178 12.1964 10.5178 12.3952C10.5178 12.594 10.2734 14.633 10.2734 14.633L10.0186 13.417C10.0186 13.4162 10.2726 15.9782 10.7882 16.854Z" fill="#231F20"/>
<path d="M18.1258 16.854C17.192 18.5044 16.2622 18.7596 16.2622 18.7596L15.9806 19.7106H16.385H16.702L16.878 19.3004H17.2654L17.406 18.797L17.7898 18.9648L17.8812 18.4054H18.2334L18.3564 17.9392L18.6204 18.0698L18.8844 17.6408L19.254 17.4358L19.078 16.8018H19.5178L19.5002 16.1304L19.8348 16.2424L19.9578 15.6458L20.521 15.422L20.028 14.8998L20.2746 14.8066L20.0106 14.322L20.2042 14.2288L20.2396 13.6506L20.8024 13.5388L20.4856 13.0166L20.873 12.3826L20.4154 12.1214L20.6616 11.4876L20.521 10.8908L21.049 10.4432L20.31 10.3688V9.8094L20.0986 9.3246L20.31 8.9144L19.9226 8.5788L20.31 8.243L19.8876 7.7954V7.5344L19.5004 7.1988L19.6766 6.6766L18.9726 6.8258L18.9372 5.9308L18.4092 6.1172L18.2332 5.7444L17.6348 5.819C17.6348 5.819 17.7756 5.5206 17.5294 5.5206C17.283 5.5206 16.6844 5.7818 16.6844 5.7818L16.3676 5.3342L15.6636 5.8564L15.4172 5.3342L14.9596 5.8936L14.5304 5.3342C14.5304 5.3342 14.5304 8.467 14.5304 10.4062C15.0864 10.3566 15.3822 10.3566 16.6022 9.8592C17.0246 10.1576 18.3856 12.1964 18.3856 12.3952C18.3856 12.594 18.6204 14.633 18.6204 14.633L18.8654 13.417C18.8654 13.4162 18.6214 15.9782 18.1258 16.854Z" fill="#231F20"/>
<path d="M9.03217 13.4062C8.89537 12.4148 9.44137 11.5426 10.2506 11.4582C11.0612 11.3738 11.8282 12.11 11.964 13.1014C12.1006 14.092 11.5534 14.9644 10.744 15.0492C9.93417 15.133 9.16797 14.3976 9.03217 13.4062Z" fill="#F1C9A5"/>
<path d="M18.2876 15.0492C17.4776 14.9644 16.931 14.0918 17.068 13.1014C17.2034 12.11 17.9706 11.3738 18.7806 11.4582C19.59 11.5426 20.136 12.4148 19.9994 13.4062C19.8636 14.3976 19.0974 15.133 18.2876 15.0492Z" fill="#E4B692"/>
</svg>
