<svg width="40" height="40" viewBox="0 0 40 40" fill="none" xmlns="http://www.w3.org/2000/svg">
<path d="M40 0H0V40H40V0Z" fill="#60B0C9"/>
<path d="M23.9862 27.3114C26.5028 27.3114 28.5429 25.0881 28.5429 22.3454C28.5429 19.6027 26.5028 17.3793 23.9862 17.3793C21.4696 17.3793 19.4295 19.6027 19.4295 22.3454C19.4295 25.0881 21.4696 27.3114 23.9862 27.3114Z" fill="#5A3017"/>
<path d="M30.1722 31.8334C28.8028 29.2411 20 27.6146 20 27.6146C20 27.6146 11.197 29.2411 9.8276 31.8334C8.81601 35.4301 7.96912 40 7.96912 40H20H32.0306C32.0309 40 31.4593 35.0999 30.1722 31.8334Z" fill="#F1C9A5"/>
<path d="M20.0003 27.6146C20.0003 27.6146 28.803 29.2411 30.1724 31.8334C31.4593 35.1001 32.0309 40 32.0309 40H20.0003V27.6146Z" fill="#E4B692"/>
<path d="M22.3964 22.3454H17.6036V30.3666H22.3964V22.3454Z" fill="#F1C9A5"/>
<path d="M22.3964 22.3454H20.0003V30.3666H22.3964V22.3454Z" fill="#E4B692"/>
<path opacity="0.1" d="M17.6036 26.0621C18.0348 27.2993 19.7741 28.0088 21.0516 28.0088C21.514 28.0088 21.9636 27.9316 22.3964 27.7895V22.3454H17.6036V26.0621Z" fill="#DDAC8C"/>
<path d="M26.1619 17.2833C26.1619 12.2734 23.403 9.42429 20 9.42429C16.5967 9.42429 13.8378 12.2734 13.8378 17.2833C13.8378 22.2935 16.5967 26.3559 20 26.3559C23.4033 26.3559 26.1619 22.2935 26.1619 17.2833Z" fill="#F1C9A5"/>
<path d="M25.2243 20.7572C24.1073 20.6328 23.3531 19.3537 23.5421 17.9012C23.7291 16.4477 24.787 15.3691 25.9043 15.4921C27.0207 15.616 27.7738 16.8946 27.5854 18.3481C27.3981 19.8017 26.3412 20.8797 25.2243 20.7572Z" fill="#E4B692"/>
<path d="M12.4582 18.3484C12.2695 16.8949 13.0229 15.6166 14.1388 15.4924C15.2568 15.3694 16.3148 16.448 16.5021 17.9015C16.6905 19.3539 15.9357 20.6328 14.8193 20.7575C13.7024 20.8797 12.6455 19.8017 12.4582 18.3484Z" fill="#F1C9A5"/>
<path d="M26.1619 17.2833C26.1619 12.2734 23.403 9.42429 20 9.42429V26.3559C23.4033 26.3559 26.1619 22.2935 26.1619 17.2833Z" fill="#E4B692"/>
<path d="M30.1722 31.8334C29.7128 30.9633 28.4152 30.2033 26.8955 29.5757C26.1313 32.6745 23.3346 34.9732 20 34.9732C16.6651 34.9732 13.8684 32.6745 13.1043 29.5757C11.5846 30.203 10.2872 30.963 9.8276 31.8334C8.81601 35.4301 7.96912 40 7.96912 40H20H32.0306C32.0309 40 31.4593 35.0999 30.1722 31.8334Z" fill="#9E1F63"/>
<path d="M28.1487 18.1495C28.1487 18.1495 24.8218 19.8127 22.4932 15.155C20.9407 15.3771 16.2828 14.4899 15.3956 12.272C14.6196 15.5989 12.4292 16.2541 14.0648 19.5909C15.2703 22.0505 15.0629 26.3559 15.0629 26.3559C15.0629 26.3559 10.0232 21.7559 10.757 15.483C11.5829 8.41987 13.2888 6.50538 15.6174 7.17049C17.5029 4.73076 23.2692 5.06345 25.5983 8.05794C27.9269 11.0521 27.2712 12.376 28.1487 13.6028C29.8301 15.9534 28.1487 18.1495 28.1487 18.1495Z" fill="#5A3017"/>
<path d="M13.1043 29.5757L24.9346 32.976L27.9228 30.9255L26.8957 29.5757L13.4955 32.976L15.4519 34.5446L26.9937 32.0601L22.0541 35.2295L13.2999 31.1699" stroke="#9E1F63" stroke-width="1.0637" stroke-miterlimit="10"/>
</svg>
