<svg width="20" height="20" viewBox="0 0 20 20" fill="none" xmlns="http://www.w3.org/2000/svg">
<g clip-path="url(#clip0_22_874)">
<path d="M10.0029 19.9999C15.5257 19.9999 20.0028 15.5227 20.0028 9.99993C20.0028 4.47712 15.5257 0 10.0029 0C4.48005 0 0.00292969 4.47712 0.00292969 9.99993C0.00292969 15.5227 4.48005 19.9999 10.0029 19.9999Z" fill="#A6D9EA"/>
<path d="M10.1421 4.56329C10.1421 4.56329 8.74279 4.23408 7.54961 5.13922C6.35643 6.0445 6.98997 7.33259 5.83783 8.36123C4.68595 9.38987 4.85035 10.3155 5.48818 11.4469C6.12573 12.5783 4.68416 13.1071 5.09073 14.4879C5.485 15.8263 6.88692 16.5108 6.88692 16.5108H13.1613C13.1613 16.5108 15.1845 15.015 15.2872 13.9247C15.39 12.8343 14.2522 12.2914 14.5814 11.5302C14.9104 10.769 14.9341 9.7014 14.1772 8.86671C13.2442 7.83807 13.9668 7.62339 13.2642 6.2013C12.4533 4.56025 11.2728 4.20424 10.1421 4.56329Z" fill="#471B18"/>
<path d="M14.7891 16.155C14.1445 14.9347 10.0001 14.1689 10.0001 14.1689C10.0001 14.1689 5.85565 14.9347 5.21105 16.155C4.73458 17.8484 4.33603 20 4.33603 20H10.0001H15.6641C15.6641 20 15.3949 17.6929 14.7891 16.155Z" fill="#F1C9A5"/>
<path d="M10.0001 14.1689C10.0001 14.1689 14.1445 14.9347 14.7891 16.155C15.3949 17.6929 15.6641 20 15.6641 20H10.0001V14.1689Z" fill="#E4B692"/>
<path d="M11.1282 11.6881H8.87167V15.4645H11.1282V11.6881Z" fill="#F1C9A5"/>
<path d="M11.1282 11.6881H10.0001V15.4645H11.1282V11.6881Z" fill="#E4B692"/>
<path opacity="0.1" d="M8.87167 13.438C9.07461 14.0206 9.89369 14.3545 10.4952 14.3545C10.7126 14.3545 10.9245 14.318 11.1282 14.2513V11.6881H8.87167V13.438Z" fill="#DDAC8C"/>
<path d="M12.9012 9.30519C12.9012 6.94647 11.6023 5.60519 10.0001 5.60519C8.39783 5.60519 7.09897 6.94647 7.09897 9.30519C7.09897 11.6639 8.39783 13.5763 10.0001 13.5763C11.6023 13.5763 12.9012 11.6641 12.9012 9.30519Z" fill="#F1C9A5"/>
<path d="M12.4595 10.9406C11.9336 10.882 11.5786 10.2798 11.6677 9.59614C11.7557 8.91189 12.2537 8.40393 12.7799 8.46209C13.3055 8.52038 13.66 9.12229 13.5713 9.80654C13.4829 10.4908 12.9854 10.9983 12.4595 10.9406Z" fill="#E4B692"/>
<path d="M6.44927 9.80654C6.36044 9.12229 6.71507 8.52025 7.24044 8.46209C7.76678 8.40393 8.26494 8.91189 8.35322 9.59614C8.44205 10.2798 8.08659 10.8822 7.56108 10.9406C7.03502 10.9983 6.53755 10.4908 6.44927 9.80654Z" fill="#F1C9A5"/>
<path d="M12.9012 9.30519C12.9012 6.94647 11.6023 5.60519 10.0001 5.60519V13.5763C11.6023 13.5763 12.9012 11.6641 12.9012 9.30519Z" fill="#E4B692"/>
<path d="M6.47842 20H10.0001H13.5072V16.1916H6.47842V20Z" fill="white"/>
<path d="M9.31928 20L8.66391 14.4731C7.19747 14.7033 5.53584 15.5395 5.21105 16.155C4.73458 17.8484 4.33603 20 4.33603 20H9.31928Z" fill="#FE393E"/>
<path d="M10.9601 20H15.6641C15.6641 20 15.3949 17.6929 14.7891 16.155C14.2603 15.2128 12.1699 14.7025 11.4415 14.4879L10.9601 20Z" fill="#FE393E"/>
<path d="M9.99274 6.86358C9.99274 6.86358 9.36762 8.21218 8.48693 8.63643C7.09896 9.30534 8.30319 10.3265 8.14156 11.6882C7.99582 12.9168 6.56876 13.4774 7.40123 14.7985C5.95414 15.0835 6.02321 14.3546 6.02321 14.3546C6.02321 14.3546 5.88506 10.5604 5.85053 10.4734C5.81599 10.3863 6.67941 8.03784 6.67941 8.03784L7.92108 5.3785L10.1419 4.92911L9.99274 6.86358Z" fill="#471B18"/>
<path d="M9.99274 6.86357C9.99274 6.86357 10.0626 7.92261 11.1282 8.01475C12.194 8.1069 12.3321 8.88757 12.1249 9.59088C11.9177 10.2942 11.8254 10.6857 12.4012 11.2383C12.9767 11.7909 12.3321 13.9247 12.3321 13.9247L14.4505 12.9166C14.4505 12.9166 13.9986 11.2032 14.2433 10.2482C14.4879 9.29317 13.3912 8.61348 13.1149 7.92275C12.8386 7.23201 11.4514 4.73983 10.329 4.92909C9.20627 5.11836 9.31927 6.31098 9.31927 6.31098L9.99274 6.86357Z" fill="#471B18"/>
</g>
<defs>
<clipPath id="clip0_22_874">
<rect width="20" height="20" fill="white"/>
</clipPath>
</defs>
</svg>
